<svg xmlns="http://www.w3.org/2000/svg" width="294" height="65" viewBox="0 0 294 65">
  <g fill="#FFF" fill-rule="evenodd">
    <path d="M130.0559 29.4668C131.0879 25.1998 132.8079 19.4888 135.8359 9.8208L143.8879 9.8208 143.8879 35.1788 139.1049 35.1788C139.1049 24.7528 139.1389 17.7688 139.2429 13.8128L139.1049 13.8128C138.0039 17.7688 135.9059 24.5128 132.4989 35.1788L127.5099 35.1788C124.2419 24.7528 122.0389 17.7688 120.9379 13.8128L120.7669 13.8128C120.9039 17.7688 120.9379 24.7528 120.9379 35.1788L116.1219 35.1788 116.1219 9.8208 124.1719 9.8208C127.2349 19.5928 128.9899 25.1998 129.9519 29.4668L130.0559 29.4668zM169.5017 18.9043C169.0207 16.9773 168.5037 15.1543 168.0217 12.8483L167.7467 12.8483C167.2997 15.1203 166.8177 17.0473 166.3357 18.9383L164.7877 24.9943 171.0497 24.9943 169.5017 18.9043zM163.7907 28.5033L162.1047 35.1783 156.4617 35.1783 164.3407 9.8213 171.4627 9.8213 179.3757 35.1783 173.7327 35.1783 172.0137 28.5033 163.7907 28.5033zM204.5467 31.6689C209.3287 31.6689 211.9437 29.1909 211.9437 22.4819 211.9437 16.8059 210.0177 13.3299 204.4777 13.3299L200.7287 13.3299 200.7287 31.6689 204.5467 31.6689zM195.4297 35.1789L195.4297 9.8209 204.6847 9.8209C213.4227 9.8209 217.3457 13.8469 217.3457 22.3789 217.3457 30.6029 214.0427 35.1789 204.8567 35.1789L195.4297 35.1789zM243.7185 12.7461C240.3125 12.7461 237.0785 15.2571 237.0785 22.4821 237.0785 29.6731 240.3125 32.1851 243.7535 32.1851 247.1935 32.1851 250.4615 29.6731 250.4615 22.4821 250.4615 15.2571 247.1935 12.7461 243.7535 12.7461L243.7185 12.7461zM231.6765 22.4481C231.6765 13.3991 236.6305 9.3051 243.7535 9.3051 250.8755 9.3051 255.8645 13.3991 255.8645 22.4821 255.8645 31.6001 250.8755 35.6941 243.7535 35.6941 236.6305 35.6941 231.6765 31.6001 231.6765 22.4821L231.6765 22.4481zM283.2517 18.9043C282.7707 16.9773 282.2547 15.1543 281.7727 12.8483L281.4967 12.8483C281.0507 15.1203 280.5687 17.0473 280.0867 18.9383L278.5377 24.9943 284.7997 24.9943 283.2517 18.9043zM277.5407 28.5033L275.8557 35.1783 270.2117 35.1783 278.0917 9.8213 285.2137 9.8213 293.1267 35.1783 287.4827 35.1783 285.7637 28.5033 277.5407 28.5033zM125.8333 53.4697C126.3713 53.9847 126.7843 54.5347 127.2653 55.2447L126.4753 55.8067C126.0283 55.1427 125.5583 54.4897 125.0653 54.0077L125.8333 53.4697zM122.0753 52.9317C122.5103 53.2297 122.9113 53.5727 123.3703 53.9847L122.7503 54.6727C122.3833 54.2827 121.9833 53.9627 121.4673 53.5727L122.0753 52.9317zM120.7683 53.4697L120.7683 55.1427C120.7683 55.3607 120.8253 55.4977 121.0433 55.4977L122.5673 55.4977C123.5073 55.4977 123.7593 55.4977 123.8743 55.3837 124.0563 55.2347 124.1373 54.8907 124.2513 54.4317 124.6073 54.7177 124.9043 54.8567 125.2493 54.9927 124.9163 56.1167 124.6303 56.3337 123.7133 56.3337L121.6733 56.3337C120.7233 56.3337 120.4583 56.3337 120.0923 56.1167 119.8163 55.9327 119.7833 55.6927 119.7833 55.3027L119.7833 53.4697 120.7683 53.4697zM122.0863 50.1117C121.6623 50.6967 121.2723 51.2117 120.8603 51.7507 122.2013 51.6937 122.9683 51.6587 124.2403 51.5557 124.0453 51.3617 123.8393 51.1557 123.5633 50.9137L124.3203 50.3187C125.2033 51.0297 125.7763 51.6137 126.2913 52.2207L125.4663 52.8967C125.2713 52.6667 125.1003 52.4607 124.8933 52.2547 123.4503 52.3917 122.7163 52.4497 122.0973 52.5067L117.9953 52.8517 117.7893 51.8197C118.8203 51.8197 119.2673 51.8077 119.7033 51.7967 120.2753 50.9837 120.4823 50.6617 121.1123 49.5967L122.0863 50.1117zM122.6363 46.2387L122.6363 47.1107 126.9443 47.1107 126.9443 49.3327 125.9703 49.3327 125.9703 48.0157 123.7363 48.0157 123.7363 49.0347C123.7363 49.2307 123.8283 49.2647 124.0113 49.2647 124.1033 49.2647 124.4233 49.2647 124.4813 49.2407 124.6183 49.1607 124.6413 48.8517 124.6643 48.5317 125.0193 48.7937 125.3063 48.9437 125.6843 49.0117 125.3753 50.0207 125.0883 50.0667 124.4813 50.0667 123.4503 50.0667 123.3013 50.0667 123.1053 49.9857 123.0493 49.9507 122.7973 49.8147 122.7973 49.3667L122.7973 48.0157 121.4793 48.0157C120.8833 49.8377 119.2093 50.3757 118.6483 50.5587 118.5453 50.2727 118.3623 49.9857 118.0633 49.6537 119.5883 49.3327 120.0353 48.7827 120.4473 48.0157L118.5223 48.0157 118.5223 49.3217 117.5483 49.3217 117.5483 47.1107 121.6163 47.1107 121.6163 46.2387 122.6363 46.2387zM119.0833 53.9737C118.7973 54.6267 118.4083 55.2577 117.9833 55.9097L117.0783 55.3607C117.5253 54.7767 117.8923 54.1567 118.2023 53.5037L119.0833 53.9737zM137.1287 46.5596C137.0827 47.2366 137.0137 48.6106 137.0137 49.1156 137.0137 49.4236 137.0257 49.8146 137.1067 50.5816 138.1717 50.2046 138.4347 50.1236 140.7147 49.4016L141.1057 50.5246C138.3197 51.2006 136.6357 51.6016 135.3637 52.4146 134.7567 52.8046 134.3097 53.2866 134.3097 53.8586 134.3097 55.1196 135.8117 55.2576 137.9767 55.2576 139.3977 55.2576 140.1767 55.1886 141.2427 55.0286L141.3117 56.1176C140.3147 56.2076 139.4547 56.2776 138.3997 56.2776 137.0717 56.2776 134.8257 56.1626 133.9427 55.3486 133.6107 55.0516 133.2897 54.5466 133.2897 53.9736 133.2897 52.4266 134.7337 51.5676 136.1997 50.9036 135.9607 49.8826 135.8797 49.2646 135.8797 48.0036 135.8797 47.6376 135.8917 47.2236 135.9257 46.5826L137.1287 46.5596zM155.2303 46.6055C155.7003 46.9715 156.1703 47.3965 156.5593 47.7635L155.9633 48.3925C155.5743 48.0155 155.1033 47.5685 154.6453 47.2015L155.2303 46.6055zM154.8973 49.4015C154.5773 49.0455 154.1293 48.6105 153.6363 48.2095L154.1873 47.6705C154.6343 48.0155 155.1163 48.4385 155.4943 48.8055L154.8973 49.4015zM151.5633 46.4905L151.5633 49.6655C154.0503 50.5705 155.3443 51.3035 156.4333 51.9225L155.7803 52.9775C154.3023 52.0595 153.5233 51.6245 151.5633 50.9035L151.5633 56.4495 150.3603 56.4495 150.3603 46.4905 151.5633 46.4905zM171.1433 47.2471L171.9123 48.1641C171.4643 48.5181 170.8463 49.1261 170.4213 49.5041 169.8943 49.9851 169.2533 50.5361 168.2213 51.3721L167.8093 50.8451C167.6253 54.2831 166.8473 55.3141 164.0963 56.3801 163.9593 56.0591 163.7413 55.6581 163.3973 55.3031 166.5723 54.5921 166.5723 52.6221 166.5723 49.7571L167.8203 49.7571 167.8203 50.3641C168.5533 49.7451 169.3443 49.0461 169.9413 48.4041L162.9963 48.4041 162.9963 47.3511 170.9953 47.3511 171.1433 47.2471zM178.6463 52.0254C178.6463 53.1714 179.0933 54.0654 179.5973 54.0654 179.9763 54.0654 180.3423 53.2514 180.5383 52.8514 181.1323 51.5334 181.7293 49.7794 181.8893 48.3364 180.1253 48.6794 178.6463 49.9284 178.6463 52.0254M182.2913 55.1544C184.9833 54.6954 186.0943 53.3784 186.0943 51.4754 186.0943 49.4814 184.9383 48.4164 182.9553 48.2674 182.3593 51.9914 181.0643 54.1574 180.4223 54.8214 180.0903 55.1654 179.7573 55.2344 179.5403 55.2344 178.4283 55.2344 177.6153 53.6874 177.6153 52.0484 177.6153 49.3214 179.7813 47.3964 182.8053 47.3964 183.9863 47.3964 185.4533 47.8774 186.2093 48.6444 186.9303 49.3904 187.2643 50.4214 187.2643 51.4414 187.2643 54.7304 184.5373 55.7264 182.7603 56.1624 182.6453 55.7614 182.4853 55.4404 182.2913 55.1544M200.656 48.749C199.282 48.932 198.296 49.012 197.253 49.012 196.141 49.012 195.511 48.943 194.434 48.634L194.743 47.66C195.294 47.82 196.027 48.016 197.288 48.016 198.353 48.016 199.499 47.866 200.576 47.728L200.656 48.749zM195.236 52.392C195.075 52.645 194.732 53.251 194.732 53.665 194.732 54.226 195.42 54.363 195.728 54.421 196.611 54.592 197.527 54.638 198.433 54.638 199.327 54.638 200.45 54.581 201.562 54.386L201.641 55.532C200.725 55.624 199.957 55.67 198.845 55.67 197.586 55.67 193.609 55.67 193.609 53.802 193.609 53.16 194.021 52.484 194.365 51.934L195.236 52.392zM212.5125 46.5596C212.4665 47.2366 212.3975 48.6106 212.3975 49.1156 212.3975 49.4236 212.4095 49.8146 212.4905 50.5816 213.5555 50.2046 213.8185 50.1236 216.0985 49.4016L216.4895 50.5246C213.7045 51.2006 212.0195 51.6016 210.7475 52.4146 210.1405 52.8046 209.6935 53.2866 209.6935 53.8586 209.6935 55.1196 211.1955 55.2576 213.3605 55.2576 214.7815 55.2576 215.5605 55.1886 216.6255 55.0286L216.6955 56.1176C215.6985 56.2076 214.8385 56.2776 213.7835 56.2776 212.4545 56.2776 210.2095 56.1626 209.3265 55.3486 208.9945 55.0516 208.6735 54.5466 208.6735 53.9736 208.6735 52.4266 210.1165 51.5676 211.5835 50.9036 211.3445 49.8826 211.2635 49.2646 211.2635 48.0036 211.2635 47.6376 211.2755 47.2236 211.3095 46.5826L212.5125 46.5596zM232.0935 50.3408C231.2215 49.9748 230.2715 49.5848 228.6095 49.2308L228.8615 48.2898C229.9845 48.4968 230.8555 48.7028 232.5165 49.3208L232.0935 50.3408zM228.0715 55.4748C228.3805 55.4748 228.6555 55.4058 228.8615 55.2688 229.1485 55.0628 229.1825 54.8208 229.1825 54.5578 229.1825 54.4658 229.1705 54.3628 229.1705 54.2368 228.8385 54.1228 228.4485 53.9968 227.8995 53.9968 226.8215 53.9968 226.7645 54.6608 226.7645 54.7408 226.7645 55.3028 227.5775 55.4748 228.0715 55.4748zM230.2255 50.3188C230.1215 50.7998 230.0995 51.1548 230.0995 51.6478 230.0995 52.0148 230.1335 52.8048 230.1795 53.6178 231.1985 53.9628 232.2535 54.5008 232.6885 54.7308L232.0815 55.8068C231.6465 55.5208 230.8785 54.9928 230.1905 54.6608 230.1905 55.4058 229.9955 55.8758 229.2395 56.1398 228.9185 56.2538 228.4835 56.3228 228.1275 56.3228 227.0055 56.3228 225.7555 55.6928 225.7555 54.7308 225.7555 54.2258 226.1345 53.1948 227.8755 53.1948 228.0355 53.1948 228.5295 53.1948 229.1595 53.3438 229.1485 53.0108 229.0445 51.5678 229.0445 51.2578 229.0445 50.9838 229.0565 50.6518 229.1015 50.2368L230.2255 50.3188zM226.9935 46.8228C226.8565 47.3038 226.6385 47.8898 226.4665 48.3358 226.9705 48.2558 227.5315 48.1418 228.0355 48.0268L228.0815 49.0698C227.4175 49.2068 226.7185 49.3108 226.1345 49.3908 225.4575 51.2118 224.7705 53.0688 223.5325 55.3378L222.5475 54.7768C223.0735 53.8478 224.1165 52.0148 224.9545 49.4818 224.7135 49.5038 224.4735 49.5168 224.1975 49.5168 223.9005 49.5168 223.5685 49.5038 223.2005 49.4708L223.2125 48.4388C223.6355 48.5078 224.1065 48.5418 224.5075 48.5418 224.7935 48.5418 225.0685 48.5308 225.2865 48.4968 225.4815 47.8898 225.6645 47.2128 225.8355 46.5028L226.9935 46.8228zM244.3045 48.3926C242.8615 48.0726 241.9565 47.7506 240.5575 47.1216L241.0045 46.1476C242.2425 46.7196 242.8165 46.9046 244.6375 47.3726L244.3045 48.3926zM241.0515 48.9316C240.6165 50.2146 240.4665 51.0976 240.3515 52.1286 241.8185 51.0636 243.0675 50.7646 244.1565 50.7646 245.6005 50.7646 246.9185 51.4976 246.9185 53.0446 246.9185 56.2316 242.1165 56.3796 240.7645 56.4136 240.7765 56.2076 240.7065 55.7616 240.5465 55.3026 240.8905 55.3256 241.1775 55.3376 241.4295 55.3376 243.9725 55.3376 245.7835 54.5576 245.7835 53.0576 245.7835 52.3466 245.2225 51.6476 243.9855 51.6476 243.3775 51.6476 241.5785 51.8196 240.0885 53.7446L239.2295 53.3896C239.3095 52.6786 239.3435 52.2886 239.3785 51.9456 239.4925 50.8686 239.6175 50.0776 239.8935 48.5776L241.0515 48.9316zM261.9256 47.877L262.6026 48.794C262.3146 49.046 262.2346 49.138 262.1316 49.241 260.9056 50.674 260.1266 51.43 258.4076 52.932 258.9466 53.47 259.5416 54.111 260.0336 54.765L259.0716 55.566C257.6746 53.711 256.6316 52.69 255.0726 51.452L255.8066 50.639C256.4466 51.132 257.0676 51.659 257.6616 52.186 258.7286 51.235 259.3936 50.582 260.7796 48.989L253.2746 48.989 253.2746 47.935 261.7196 47.935 261.9256 47.877zM275.8455 46.6055C276.3155 46.9715 276.7845 47.3965 277.1745 47.7635L276.5785 48.3925C276.1895 48.0155 275.7185 47.5685 275.2605 47.2015L275.8455 46.6055zM275.5125 49.4015C275.1915 49.0455 274.7445 48.6105 274.2515 48.2095L274.8025 47.6705C275.2495 48.0155 275.7315 48.4385 276.1095 48.8055L275.5125 49.4015zM272.1785 46.4905L272.1785 49.6655C274.6645 50.5705 275.9595 51.3035 277.0485 51.9225L276.3955 52.9775C274.9165 52.0595 274.1385 51.6245 272.1785 50.9035L272.1785 56.4495 270.9755 56.4495 270.9755 46.4905 272.1785 46.4905zM291.7586 47.2471L292.5266 48.1641C292.0796 48.5181 291.4606 49.1261 291.0366 49.5041 290.5096 49.9851 289.8676 50.5361 288.8366 51.3721L288.4236 50.8451C288.2406 54.2831 287.4616 55.3141 284.7116 56.3801 284.5736 56.0591 284.3566 55.6581 284.0126 55.3031 287.1866 54.5921 287.1866 52.6221 287.1866 49.7571L288.4356 49.7571 288.4356 50.3641C289.1686 49.7451 289.9596 49.0461 290.5566 48.4041L283.6116 48.4041 283.6116 47.3511 291.6096 47.3511 291.7586 47.2471zM96.6717 27.083C97.0357 27.279 97.3037 27.547 97.4997 27.911 97.6967 27.547 97.9637 27.279 98.3277 27.083 97.9637 26.887 97.6967 26.619 97.4997 26.255 97.3037 26.619 97.0357 26.887 96.6717 27.083M97.4997 32.5C97.2147 32.5 96.9837 32.269 96.9837 31.983 96.9837 27.641 96.9427 27.6 92.5997 27.6 92.3147 27.6 92.0837 27.368 92.0837 27.083 92.0837 26.798 92.3147 26.567 92.5997 26.567 96.9427 26.567 96.9837 26.526 96.9837 22.183 96.9837 21.897 97.2147 21.667 97.4997 21.667 97.7857 21.667 98.0167 21.897 98.0167 22.183 98.0167 26.526 98.0567 26.567 102.4007 26.567 102.6857 26.567 102.9167 26.798 102.9167 27.083 102.9167 27.368 102.6857 27.6 102.4007 27.6 98.0567 27.6 98.0167 27.641 98.0167 31.983 98.0167 32.269 97.7857 32.5 97.4997 32.5M4.5887 16.25C4.9527 16.446 5.2207 16.714 5.4167 17.078 5.6127 16.714 5.8807 16.446 6.2447 16.25 5.8807 16.054 5.6127 15.786 5.4167 15.422 5.2207 15.786 4.9527 16.054 4.5887 16.25M5.4167 21.666C5.1317 21.666 4.9007 21.436 4.9007 21.15 4.9007 16.807 4.8597 16.766.5167 16.766.2317 16.766-.0003 16.535-.0003 16.25-.0003 15.965.2317 15.733.5167 15.733 4.8597 15.733 4.9007 15.692 4.9007 11.35 4.9007 11.064 5.1317 10.833 5.4167 10.833 5.7017 10.833 5.9327 11.064 5.9327 11.35 5.9327 15.692 5.9737 15.733 10.3177 15.733 10.6027 15.733 10.8337 15.965 10.8337 16.25 10.8337 16.535 10.6027 16.766 10.3177 16.766 5.9737 16.766 5.9327 16.807 5.9327 21.15 5.9327 21.436 5.7017 21.666 5.4167 21.666M77.1878 31.417C77.1878 32.013 76.6998 32.5 76.1048 32.5L59.3128 32.5C58.7168 32.5 58.2298 32.013 58.2298 31.417L58.2298 17.333C58.2298 16.737 58.7168 16.25 59.3128 16.25L76.1048 16.25C76.6998 16.25 77.1878 16.737 77.1878 17.333L77.1878 31.417zM44.6878 31.417C44.6878 32.013 44.1998 32.5 43.6048 32.5L26.8128 32.5C26.2168 32.5 25.7298 32.013 25.7298 31.417L25.7298 17.333C25.7298 16.737 26.2168 16.25 26.8128 16.25L43.6048 16.25C44.1998 16.25 44.6878 16.737 44.6878 17.333L44.6878 31.417zM83.9588 0L56.8448 0C55.6078 1.636 53.6668 2.708 51.4588 2.708 49.2508 2.708 47.3088 1.636 46.0728 0L18.9588 0C17.4688 0 16.2498 1.219 16.2498 2.708L16.2498 62.292C16.2498 63.781 17.4688 65 18.9588 65L28.1668 65 42.2498 65C42.8458 65 43.3338 64.513 43.3338 63.917L43.3338 44.417C43.3338 43.82 43.8208 43.333 44.4168 43.333L58.5008 43.333C59.0958 43.333 59.5838 43.82 59.5838 44.417L59.5838 63.917C59.5838 64.513 60.0708 65 60.6668 65L74.7498 65 83.9588 65C85.4478 65 86.6668 63.781 86.6668 62.292L86.6668 2.708C86.6668 1.219 85.4478 0 83.9588 0z"/>
    <polygon points="34.667 35.101 35.75 35.101 35.75 13.435 34.667 13.435"/>
    <polygon points="33.584 25.622 34.667 25.622 34.667 22.913 33.584 22.913"/>
    <polygon points="66.084 25.622 67.167 25.622 67.167 22.913 66.084 22.913"/>
    <polygon points="67.167 35.101 68.25 35.101 68.25 13.435 67.167 13.435"/>
    <path d="M48.7522,54.167 C48.7522,54.915 48.1462,55.521 47.3982,55.521 C46.6502,55.521 46.0442,54.915 46.0442,54.167 C46.0442,53.419 46.6502,52.813 47.3982,52.813 C48.1462,52.813 48.7522,53.419 48.7522,54.167"/>
  </g>
</svg>
