<svg height="65" viewBox="0 0 294 65" width="294" xmlns="http://www.w3.org/2000/svg"><g fill="#fff" fill-rule="evenodd"><path d="m130.0562 29.467c1.032-4.267 2.752-9.978 5.78-19.646h8.052v25.357h-4.783c0-10.425.034-17.409.138-21.366h-.138c-1.101 3.957-3.2 10.701-6.606 21.366h-4.989c-3.269-10.425-5.471-17.409-6.572-21.366h-.172c.138 3.957.172 10.941.172 21.366h-4.816v-25.357h8.05c3.062 9.772 4.818 15.379 5.78 19.646zm39.4453-10.5629c-.481-1.927-.998-3.75-1.479-6.055h-.276c-.447 2.271-.928 4.197-1.411 6.09l-1.548 6.055h6.262zm-5.711 9.599-1.686 6.675h-5.643l7.879-25.357h7.122l7.914 25.357h-5.644l-1.719-6.675zm40.7564 3.1661c4.782 0 7.397-2.477 7.397-9.187 0-5.677-1.927-9.152-7.466-9.152h-3.75v18.339zm-9.118 3.509v-25.357h9.255c8.739 0 12.661 4.026 12.661 12.557 0 8.224-3.302 12.8-12.488 12.8zm48.2898-22.4321c-3.406 0-6.64 2.511-6.64 9.736 0 7.191 3.234 9.703 6.675 9.703 3.44 0 6.708-2.512 6.708-9.703 0-7.225-3.268-9.736-6.708-9.736zm-12.042 9.702c0-9.049 4.954-13.143 12.077-13.143 7.122 0 12.111 4.094 12.111 13.177 0 9.118-4.989 13.212-12.111 13.212-7.123 0-12.077-4.094-12.077-13.212zm51.5753-3.544c-.481-1.927-.997-3.75-1.479-6.055h-.276c-.447 2.271-.928 4.197-1.411 6.09l-1.547 6.055h6.261zm-5.711 9.599-1.686 6.675h-5.643l7.879-25.357h7.122l7.914 25.357h-5.644l-1.719-6.675zm-151.708 24.9666c.539.515.951 1.066 1.432 1.776l-.79.561c-.447-.664-.917-1.317-1.41-1.799zm-3.758-.538c.436.297.836.641 1.295 1.053l-.62.688c-.366-.389-.767-.71-1.283-1.1zm-1.306.538v1.673c0 .217.057.356.275.356h1.523c.94 0 1.192 0 1.307-.115.183-.15.263-.493.377-.952.356.287.654.424.998.562-.332 1.123-.619 1.341-1.536 1.341h-2.039c-.951 0-1.215 0-1.582-.218-.275-.184-.309-.424-.309-.814v-1.833zm1.317-3.358c-.423.585-.814 1.1-1.226 1.639 1.341-.057 2.109-.092 3.38-.195-.195-.195-.401-.401-.676-.642l.757-.596c.882.711 1.455 1.295 1.97 1.903l-.825.676c-.195-.229-.366-.436-.572-.642-1.444.137-2.177.195-2.797.252l-4.101.344-.206-1.032c1.03 0 1.477-.011 1.913-.022.573-.814.779-1.135 1.409-2.2zm.551-3.873v.871h4.307v2.223h-.974v-1.318h-2.234v1.02c0 .195.092.23.275.23.092 0 .412 0 .47-.024.137-.08.161-.39.183-.709.356.262.642.412 1.02.48-.309 1.009-.596 1.054-1.203 1.054-1.031 0-1.18 0-1.375-.08-.057-.035-.309-.172-.309-.619v-1.352h-1.318c-.596 1.823-2.27 2.361-2.831 2.544-.103-.287-.286-.573-.585-.905 1.525-.321 1.972-.871 2.385-1.639h-1.926v1.307h-.973v-2.212h4.068v-.871zm-3.554 7.735c-.286.653-.675 1.284-1.1 1.937l-.905-.551c.447-.584.814-1.202 1.124-1.855zm18.0454-7.4141c-.045.677-.115 2.051-.115 2.556 0 .309.012.698.093 1.466 1.065-.377 1.329-.458 3.609-1.18l.39 1.123c-2.785.676-4.47 1.077-5.741 1.891-.608.389-1.054.87-1.054 1.443 0 1.261 1.501 1.399 3.666 1.399 1.422 0 2.2-.069 3.266-.23l.069 1.089c-.997.092-1.857.161-2.911.161-1.329 0-3.575-.115-4.457-.929-.333-.297-.653-.802-.653-1.375 0-1.547 1.443-2.406 2.91-3.071-.24-1.02-.32-1.638-.32-2.899 0-.366.011-.78.045-1.421zm18.1021.0456c.469.367.94.791 1.329 1.158l-.596.63c-.389-.378-.86-.825-1.318-1.192zm-.333 2.796c-.321-.355-.768-.791-1.26-1.191l.55-.539c.447.344.928.767 1.306 1.134zm-3.334-2.911v3.175c2.487.906 3.781 1.639 4.87 2.258l-.653 1.054c-1.478-.917-2.258-1.353-4.217-2.074v5.546h-1.203v-9.959zm19.5801.7571.768.917c-.447.355-1.065.962-1.49 1.34-.527.482-1.168 1.032-2.2 1.868l-.412-.527c-.184 3.438-.962 4.469-3.713 5.535-.137-.321-.356-.723-.699-1.077 3.174-.711 3.174-2.682 3.174-5.546h1.249v.607c.733-.619 1.524-1.318 2.12-1.96h-6.944v-1.053h7.998zm7.5029 4.7781c0 1.146.447 2.04.951 2.04.379 0 .745-.814.94-1.214.595-1.319 1.192-3.072 1.352-4.515-1.765.343-3.243 1.593-3.243 3.689m3.645 3.128c2.692-.458 3.803-1.775 3.803-3.678 0-1.993-1.156-3.059-3.139-3.208-.597 3.724-1.892 5.89-2.533 6.554-.332.344-.665.413-.882.413-1.111 0-1.925-1.547-1.925-3.186 0-2.727 2.165-4.652 5.19-4.652 1.181 0 2.648.481 3.404 1.249.721.745 1.055 1.776 1.055 2.796 0 3.289-2.728 4.285-4.504 4.721-.115-.401-.276-.722-.469-1.009m18.3643-6.4049c-1.374.183-2.36.263-3.402.263-1.113 0-1.743-.068-2.819-.378l.308-.974c.551.161 1.285.356 2.545.356 1.065 0 2.211-.15 3.288-.287zm-5.42 3.644c-.16.252-.504.859-.504 1.272 0 .561.688.699.997.756.883.172 1.799.217 2.705.217.893 0 2.016-.056 3.128-.252l.079 1.146c-.916.093-1.684.138-2.795.138-1.26 0-5.237 0-5.237-1.868 0-.642.412-1.317.756-1.867zm17.2764-5.8329c-.046.677-.115 2.051-.115 2.556 0 .309.012.698.093 1.466 1.065-.377 1.328-.458 3.608-1.18l.391 1.123c-2.785.676-4.47 1.077-5.741 1.891-.608.389-1.055.87-1.055 1.443 0 1.261 1.502 1.399 3.667 1.399 1.421 0 2.2-.069 3.266-.23l.069 1.089c-.997.092-1.857.161-2.911.161-1.329 0-3.575-.115-4.458-.929-.332-.297-.652-.802-.652-1.375 0-1.547 1.443-2.406 2.91-3.071-.24-1.02-.321-1.638-.321-2.899 0-.366.012-.78.046-1.421zm19.5811 3.7817c-.872-.367-1.822-.757-3.484-1.111l.252-.94c1.123.206 1.994.413 3.655 1.031zm-4.022 5.134c.309 0 .584-.07.79-.207.287-.206.321-.447.321-.711 0-.091-.011-.194-.011-.32-.332-.115-.723-.24-1.272-.24-1.078 0-1.135.664-1.135.744 0 .562.814.734 1.307.734zm2.154-5.157c-.104.481-.126.836-.126 1.329 0 .367.035 1.157.08 1.971 1.02.344 2.074.882 2.509 1.112l-.606 1.077c-.436-.287-1.204-.814-1.892-1.146 0 .744-.195 1.215-.951 1.478-.32.115-.756.184-1.111.184-1.123 0-2.372-.631-2.372-1.593 0-.505.379-1.536 2.12-1.536.16 0 .653 0 1.283.149-.011-.333-.114-1.776-.114-2.086 0-.274.011-.606.056-1.02zm-3.231-3.495c-.138.481-.356 1.066-.527 1.513.503-.08 1.065-.195 1.569-.31l.046 1.043c-.665.137-1.364.241-1.947.321-.677 1.821-1.365 3.678-2.602 5.947l-.985-.561c.526-.929 1.569-2.762 2.406-5.294-.24.022-.481.034-.757.034-.297 0-.629-.012-.996-.046l.011-1.032c.424.07.894.104 1.295.104.287 0 .561-.011.779-.046.195-.607.378-1.284.55-1.994zm17.3104 1.5698c-1.443-.321-2.348-.642-3.747-1.272l.447-.974c1.238.573 1.811.757 3.633 1.226zm-3.253.538c-.436 1.284-.585 2.167-.7 3.198 1.467-1.066 2.716-1.364 3.805-1.364 1.443 0 2.762.733 2.762 2.28 0 3.187-4.802 3.335-6.154 3.369.011-.206-.058-.653-.218-1.111.344.023.631.035.883.035 2.543 0 4.354-.78 4.354-2.281 0-.711-.562-1.41-1.799-1.41-.607 0-2.406.172-3.896 2.097l-.86-.355c.081-.711.115-1.1.15-1.444.114-1.077.239-1.868.515-3.368zm20.8736-1.0539.677.917c-.288.252-.368.343-.47.447-1.227 1.432-2.006 2.189-3.725 3.69.539.539 1.134 1.181 1.627 1.834l-.962.801c-1.398-1.856-2.441-2.876-3.999-4.114l.733-.813c.641.492 1.261 1.019 1.856 1.547 1.066-.951 1.731-1.604 3.117-3.197h-7.505v-1.054h8.445zm13.9204-1.272c.469.367.939.791 1.329 1.158l-.596.63c-.39-.378-.86-.825-1.318-1.192zm-.333 2.796c-.321-.355-.768-.791-1.261-1.191l.551-.539c.447.344.928.767 1.306 1.134zm-3.334-2.911v3.175c2.486.906 3.781 1.639 4.87 2.258l-.654 1.054c-1.478-.917-2.257-1.353-4.216-2.074v5.546h-1.204v-9.959zm19.5801.7571.768.917c-.447.355-1.066.962-1.49 1.34-.528.482-1.169 1.032-2.2 1.868l-.413-.527c-.183 3.438-.962 4.469-3.712 5.535-.138-.321-.356-.723-.699-1.077 3.174-.711 3.174-2.682 3.174-5.546h1.248v.607c.734-.619 1.525-1.318 2.121-1.96h-6.944v-1.053h7.998zm-195.0869-20.164c.364.197.632.464.828.828.196-.364.464-.631.828-.828-.364-.196-.632-.464-.828-.828-.196.364-.464.632-.828.828m.828 5.417c-.285 0-.516-.231-.516-.517 0-4.343-.041-4.384-4.384-4.384-.285 0-.516-.231-.516-.516s.231-.516.516-.516c4.343 0 4.384-.041 4.384-4.384 0-.286.231-.517.516-.517s.516.231.516.517c0 4.343.041 4.384 4.385 4.384.285 0 .516.231.516.516s-.231.516-.516.516c-4.344 0-4.385.041-4.385 4.384 0 .286-.231.517-.516.517m-92.9115-16.2505c.364.196.632.464.828.828.197-.364.464-.632.828-.828-.364-.196-.631-.464-.828-.828-.196.364-.464.632-.828.828m.828 5.417c-.285 0-.516-.231-.516-.517 0-4.343-.041-4.384-4.384-4.384-.285 0-.516-.231-.516-.516s.231-.516.516-.516c4.343 0 4.384-.041 4.384-4.384 0-.286.231-.517.516-.517s.517.231.517.517c0 4.343.04 4.384 4.384 4.384.285 0 .516.231.516.516s-.231.516-.516.516c-4.344 0-4.384.041-4.384 4.384 0 .286-.232.517-.517.517m71.7711 9.7497c0 .596-.487 1.083-1.083 1.083h-16.792c-.596 0-1.083-.487-1.083-1.083v-14.083c0-.596.487-1.084 1.083-1.084h16.792c.596 0 1.083.488 1.083 1.084zm-32.5 0c0 .596-.487 1.083-1.083 1.083h-16.792c-.596 0-1.083-.487-1.083-1.083v-14.083c0-.596.487-1.084 1.083-1.084h16.792c.596 0 1.083.488 1.083 1.084zm39.271-31.417h-27.114c-1.236 1.636-3.178 2.709-5.386 2.709s-4.15-1.073-5.386-2.709h-27.114c-1.49 0-2.709 1.219-2.709 2.709v59.583c0 1.49 1.219 2.708 2.709 2.708h9.208 14.083c.596 0 1.084-.487 1.084-1.083v-19.5c0-.596.487-1.083 1.083-1.083h14.084c.595 0 1.083.487 1.083 1.083v19.5c0 .596.487 1.083 1.083 1.083h14.083 9.209c1.489 0 2.708-1.218 2.708-2.708v-59.583c0-1.49-1.219-2.709-2.708-2.709z"/><path d="m34.667 35.101h1.083v-21.667h-1.083z"/><path d="m33.584 25.622h1.083v-2.708h-1.083z"/><path d="m66.084 25.622h1.083v-2.708h-1.083z"/><path d="m67.167 35.101h1.083v-21.667h-1.083z"/><path d="m48.752 54.1667c0 .748-.606 1.354-1.354 1.354s-1.354-.606-1.354-1.354.606-1.354 1.354-1.354 1.354.606 1.354 1.354"/></g></svg>