<svg xmlns="http://www.w3.org/2000/svg" width="831" height="71" viewBox="0 0 831 71">
  <g fill="#0094DE" fill-rule="evenodd" transform="translate(2 17)">
    <path stroke="#FFF" stroke-width="6" d="M36.2,33.7 L40.35,31.45 C39.35,30.25 39,29.75 38,28.65 C29.35,29.65 19.2,30.35 8.9,30.7 C8.3,30.7 7.45,30.75 6,30.9 L5.25,25.35 C6.5,25.45 7.3,25.5 9.1,25.5 C9.35,25.5 11,25.5 14.1,25.45 C16.45,22.65 18.4,19.8 20.1,16.45 L25.85,17.85 C23.5,21.35 22.2,23.1 20.3,25.3 C25.8,25.15 31.4,24.9 34,24.65 C32.85,23.6 32.1,23 30.1,21.4 L33.5,19.4 C27.85,19.3 26.8,18.75 26.8,16.15 L26.8,10.35 L23.2,10.35 C22.55,12.85 21.85,14.15 20.1,15.75 C17.15,18.6 13.85,20.25 7.8,21.95 C6.9,20.1 6.4,19.35 4.9,17.6 C9.9,16.6 12.7,15.6 15,14 C16.55,12.85 17.25,11.95 17.8,10.35 L8.75,10.35 L8.75,16.2 L3.3,16.2 C3.45,15.1 3.5,14.15 3.5,12.35 L3.5,9.1 C3.5,7.5 3.45,6.6 3.3,5.45 C4.85,5.6 6.4,5.65 8.8,5.65 L22.2,5.65 L22.2,4.75 C22.2,3.45 22.1,2.55 21.9,1.6 L27.9,1.6 C27.75,2.55 27.65,3.45 27.65,4.75 L27.65,5.65 L42,5.65 C44.4,5.65 45.95,5.6 47.5,5.45 C47.35,6.45 47.3,7.4 47.3,9.1 L47.3,12.3 C47.3,14.1 47.4,15.45 47.5,16.3 L43.6,16.3 C42.75,18.85 41.45,19.35 35.1,19.4 C39.05,22.35 41.85,25 45.85,29.35 L41.65,32.35 C43.85,34.85 46.15,38.15 48.8,42.75 L44.1,46 C41.25,40.35 40,38.45 36.2,33.7 Z M31.9,10.35 L31.9,14.25 C31.9,14.85 32.05,15 32.7,15.1 C33.2,15.2 34.65,15.25 36.45,15.25 C38.85,15.25 39,15.05 39.15,12.2 C40.6,12.65 41.1,12.8 42.05,12.95 L42.05,10.35 L31.9,10.35 Z M7,46.35 L2.5,42.8 C4.15,40.85 4.8,39.95 5.85,38.05 C7,35.9 7.5,34.7 8.25,32 L13.05,34.05 C11.4,39.4 9.9,42.5 7,46.35 Z M14.95,32.05 L20.65,32.05 C20.5,33.05 20.45,33.85 20.45,35.45 L20.45,40.65 C20.45,41.75 20.6,42 21.35,42.2 C21.9,42.4 22.95,42.45 24.65,42.45 C30.7,42.45 32.15,42.3 32.85,41.7 C33.35,41.25 33.6,39.6 33.65,36.85 C35.45,37.6 36.85,38 38.85,38.35 C38.3,43.7 37.75,45.25 36,46.2 C34.4,47.1 32.3,47.3 24.6,47.3 C17,47.3 15.2,46.4 15.2,42.7 L15.2,36 C15.2,34.15 15.15,33.2 14.95,32.05 Z M32.6,36.65 L28.1,39.65 C26.35,36.6 25.1,35.05 22.5,32.55 L26.9,30.15 C29.3,32.25 30.3,33.4 32.6,36.65 Z M65.25,3.95 L71.75,2.9 C71.95,6.25 73.45,13.45 75.05,18.55 C78.3,17.35 78.3,17.35 88,14.15 C88.9,13.85 89.15,13.75 89.9,13.4 L92.05,19.7 C87.7,20.55 81.15,22.45 75.55,24.5 C68.25,27.2 64.6,30.4 64.6,34 C64.6,37.65 68,39.2 76.05,39.2 C82.3,39.2 88.45,38.45 92.2,37.15 L92.75,44 C91.65,44 91.4,44.05 88.7,44.35 C83.3,44.9 80.5,45.1 77,45.1 C70.05,45.1 65.7,44.25 62.5,42.35 C59.75,40.7 58.15,37.6 58.15,34 C58.15,30.65 59.75,27.45 62.6,25.05 C64.55,23.4 66.15,22.4 69.4,20.75 C68.15,16.7 67.3,13.35 66.05,7.2 C65.55,4.8 65.5,4.7 65.25,3.95 Z M119.6,46.25 L112.75,46.25 C112.95,44.85 113.05,43.5 113.05,40.65 L113.05,8.6 C113,5.7 112.95,4.7 112.75,3.5 L119.6,3.5 C119.45,4.85 119.4,5.8 119.4,8.75 L119.4,18.05 C125.2,19.95 134.2,24.15 142.1,28.6 L138.6,34.5 C135.1,32 128,28.15 120.9,24.95 C119.75,24.4 119.6,24.35 119.2,24.1 C119.35,25.5 119.4,26.35 119.4,27.5 L119.4,40.7 C119.4,43.4 119.45,44.8 119.6,46.25 Z M129.85,7.85 L133.35,6.1 C135.55,8.45 136.9,10.35 138.6,13.45 L135.1,15.3 C133.45,12.25 132.05,10.25 129.85,7.85 Z M144.55,10.2 L141.1,12.15 C139.6,9.4 137.95,7.05 136,4.9 L139.35,3.15 C141.6,5.45 143,7.35 144.55,10.2 Z M193.8,5.75 L197.15,9.55 C196.45,10.4 196.45,10.45 195.15,13.05 C193.4,16.75 190.5,20.5 187.45,23.1 C185.45,24.85 183.8,25.95 181.45,27.25 C179.95,25.15 179.2,24.4 176.95,22.7 C180.3,21.2 182.2,20.05 184.25,18.1 C186.3,16.2 187.85,14.15 189,11.75 L162.75,11.75 C159.25,11.75 158,11.8 155.95,12.05 L155.95,5.8 C157.85,6.1 159.4,6.2 162.85,6.2 L188.95,6.2 C191.95,6.2 192.4,6.15 193.8,5.75 Z M170.05,15.85 L176.85,15.85 C176.7,16.8 176.7,16.85 176.65,19.9 C176.45,28.45 175.1,33.25 171.7,37.6 C168.7,41.45 165.05,44 158.8,46.6 C157.5,43.9 156.85,43 154.85,40.9 C158.9,39.7 161.15,38.6 163.6,36.65 C168.7,32.6 170.3,28.3 170.3,18.85 C170.3,17.35 170.25,16.9 170.05,15.85 Z M229.25,11.95 C228.3,19.8 226.55,26.7 224.05,32.35 C221.2,38.8 218,41.75 213.9,41.75 C208.2,41.75 204.1,35.95 204.1,27.9 C204.1,22.4 206.05,17.25 209.6,13.35 C213.8,8.75 219.7,6.35 226.8,6.35 C238.8,6.35 246.6,13.65 246.6,24.9 C246.6,33.55 242.1,40.45 234.45,43.55 C232.05,44.55 230.1,45.05 226.6,45.65 C225.75,43 225.15,41.9 223.55,39.8 C228.15,39.2 231.15,38.4 233.5,37.05 C237.85,34.65 240.45,29.9 240.45,24.55 C240.45,19.75 238.3,15.85 234.3,13.45 C232.75,12.55 231.45,12.15 229.25,11.95 Z M223.15,12 C220.55,12.3 218.75,13 216.7,14.45 C212.5,17.45 209.9,22.6 209.9,27.95 C209.9,32.05 211.65,35.3 213.85,35.3 C215.5,35.3 217.2,33.2 219,28.9 C220.9,24.4 222.55,17.65 223.15,12 Z M271,28.7 L271.05,38.55 C271.05,40.6 270.95,41.8 270.65,42.8 C270.2,44.55 268.4,45.7 266.05,45.7 C262.9,45.7 259.1,44.3 256.6,42.15 C254.8,40.6 253.85,38.65 253.85,36.5 C253.85,34.15 255.4,31.5 258.15,29.1 C259.95,27.55 262.15,26.25 265.45,24.85 L265.4,17.15 C265,17.15 265,17.15 263.35,17.25 C262.6,17.3 261.9,17.3 260.65,17.3 C259.9,17.3 258.5,17.25 257.9,17.25 C257.25,17.2 256.8,17.2 256.65,17.2 C256.45,17.2 256.05,17.2 255.6,17.25 L255.55,11.65 C256.95,11.95 258.95,12.1 261.6,12.1 C262.1,12.1 262.65,12.1 263.35,12.05 C264.55,12 264.8,12 265.35,12 L265.35,8.7 C265.35,5.85 265.3,4.55 265.05,2.95 L271.3,2.95 C271.05,4.55 271,5.6 271,8.4 L271,11.6 C274.75,11.15 278.1,10.5 280.65,9.7 L280.85,15.3 C279.95,15.45 279,15.6 275.55,16.2 C273.9,16.5 272.9,16.65 271,16.85 L271,23.35 C274.4,22.35 277.55,21.95 281.2,21.95 C289.55,21.95 295.5,27.05 295.5,34.15 C295.5,40.65 290.65,45.55 284.15,45.55 C280.1,45.55 277.25,43.6 275.95,40 C275.3,38.3 275.1,36.65 275.1,33.6 C277.65,32.9 278.5,32.55 280.65,31.4 C280.55,32.35 280.55,32.8 280.55,33.6 C280.55,35.7 280.75,37.05 281.25,38 C281.8,39.05 283,39.7 284.4,39.7 C287.35,39.7 289.45,37.35 289.45,34.15 C289.45,29.85 285.95,27.05 280.6,27.05 C277.6,27.05 274.55,27.6 271,28.7 Z M265.4,37.8 L265.4,30.5 C261.65,32.5 259.45,34.7 259.45,36.5 C259.45,37.35 259.95,38.1 261.1,38.8 C262.1,39.5 263.35,39.9 264.3,39.9 C265.15,39.9 265.4,39.45 265.4,37.8 Z M297.7,16.7 L293.1,20.4 C290.6,16.45 286.95,12.5 283.1,9.6 L287.8,6.45 C292.15,9.8 295.05,12.8 297.7,16.7 Z M322.5,37.45 L322.5,41.2 L341.4,41.2 L341.4,25.1 C341.4,22.85 341.35,21.65 341.2,20.55 L346.9,20.55 C346.7,21.9 346.65,23.15 346.65,25.2 L346.65,42.65 C346.65,45.05 346.75,46.85 346.95,48.2 L341.4,48.2 L341.4,46 L322.5,46 L322.5,48.2 L317.05,48.2 C317.2,46.65 317.3,44.85 317.3,42.45 L317.3,25.3 C317.3,22.9 317.25,21.85 317.05,20.65 L322.7,20.65 C322.55,21.9 322.5,22.8 322.5,25.05 L322.5,36.95 C325.65,34.6 327.2,33.1 329.4,30.1 C327.4,28.1 326.2,27.1 323.2,24.75 L326.6,21.4 C329.3,23.65 330.3,24.45 331.9,25.95 C333.25,23.25 334.25,20.45 334.6,18.45 L339.45,20.35 C339.15,20.95 339.1,21.1 338.65,22.3 C337.8,24.7 336.65,27.25 335.5,29.45 C337.75,31.7 338.6,32.65 341.1,35.6 L337.55,39.75 C335.35,36.7 334.5,35.6 332.75,33.65 C330.4,36.85 329.05,38.35 326.15,40.8 C325.25,39.65 324.6,39.1 322.5,37.45 Z M305.5,26.45 L301.55,24.85 C302.9,20.35 303.3,17.4 303.35,11.85 L307.3,12.7 C307.2,18.75 306.7,22.3 305.5,26.45 Z M313.8,48.25 L307.9,48.25 C308.15,46.55 308.25,44.3 308.25,41.95 L308.25,7.25 C308.25,5.05 308.15,3.65 307.9,1.95 L313.8,1.95 C313.55,3.7 313.5,4.95 313.5,7.25 L313.5,42.2 C313.5,44.75 313.6,46.55 313.8,48.25 Z M327.15,15.75 L322.4,17.9 C321.05,13.55 319.7,10.45 317.25,5.8 L321.9,3.6 C324.8,9.6 325.7,11.65 327.15,15.75 Z M340.6,19.5 L335.8,17.3 C339.2,12.15 340.45,9.55 342.55,2.85 L347.9,4.75 C344.8,12.2 343.3,15.3 340.6,19.5 Z M320,18.5 L316.4,20.15 C315.55,16.85 315.1,15.35 313.8,12.35 L316.95,10.9 C318.25,13.55 319,15.45 320,18.5 Z M336.45,13.85 L331.45,15.6 C329.95,10.35 329.2,8.3 327.1,3.7 L331.85,2 C333.6,5.45 334.25,7.15 336.45,13.85 Z M359.35,11 L359.1,5.15 C360.25,5.35 361.5,5.4 364.15,5.4 C367.15,5.4 371.6,5.2 373.45,4.95 C374.45,4.85 374.8,4.75 375.45,4.35 L379.4,7.75 C378.95,8.35 378.7,8.9 378.35,9.85 C378.1,10.45 375.05,19.65 374.6,21.2 C378.5,21.75 381.85,22.7 385.65,24.35 C386.05,21.8 386.15,19.75 386.15,15.1 C386.15,14 386.1,13.45 385.95,12.45 L392.25,12.7 C392.05,13.75 392,14.15 391.95,16.05 C391.8,20.45 391.55,23.45 391.05,26.65 C392.65,27.45 394.85,28.6 396.4,29.5 C397.75,30.3 397.95,30.35 398.7,30.7 L396.45,37.3 C395,36.05 392.1,34.1 389.55,32.65 C388.15,36.35 386.65,38.8 384.1,41.45 C381.9,43.75 379.4,45.6 376.55,47.1 C374.45,44.5 373.95,44 372,42.6 C375.75,40.8 377.7,39.5 379.75,37.35 C381.75,35.2 383.4,32.5 384.2,29.95 C380.65,28.25 377.7,27.3 372.95,26.5 C370.75,33.1 369.45,36.3 368,38.8 C366.15,42 363.9,43.55 361.15,43.55 C356.55,43.55 353.15,39.5 353.15,34.05 C353.15,29.45 355.4,25.55 359.35,23.1 C361.95,21.5 364.6,20.85 368.8,20.7 C370.1,16.75 370.7,14.85 371.95,10.25 C369.4,10.45 368.2,10.5 363.3,10.7 C361.25,10.8 360.35,10.85 359.35,11 Z M367.25,25.95 C363.9,26.45 362.15,27.25 360.6,28.95 C359.35,30.3 358.7,32 358.7,33.75 C358.7,35.8 359.8,37.45 361.15,37.45 C362.1,37.45 362.85,36.55 364,34.3 C365,32.3 366.2,29.2 367.25,25.95 Z M418.25,18.85 L418.35,13.1 C420.7,13.7 423.3,13.9 427.4,13.9 C429.15,13.9 430.25,13.9 432,13.8 C432,10.85 431.95,8.35 431.95,6.3 C431.95,5.2 431.9,4.45 431.8,3.9 L438.05,3.75 C437.8,5.15 437.7,7.55 437.7,11.1 L437.7,13.4 C440.3,13.1 442.5,12.7 444.45,12.2 C444.75,12.1 444.75,12.1 445.55,11.8 L445.95,11.7 L446.15,17.35 C445.65,17.4 445.6,17.4 444.7,17.6 C443,17.95 440.4,18.4 437.75,18.7 L437.75,19.8 C437.75,22.6 437.75,22.7 438.25,31.1 C441.85,32.8 443.1,33.5 446.1,35.65 C446.75,36.1 447,36.25 447.5,36.5 L445.1,42.55 C444.25,41.55 442.75,40.25 441.35,39.35 C439.65,38.25 438.5,37.5 438.2,37.3 L438.2,38 C438.2,39.1 438.05,40.1 437.8,40.8 C436.65,43.75 433.15,45.5 428.3,45.5 C421.75,45.5 417.75,42.4 417.75,37.3 C417.75,32.45 422,29.05 428.05,29.05 C429.9,29.05 431.15,29.25 432.5,29.75 C432.35,28.5 432.3,26.05 432.1,19.1 C430.1,19.15 428.9,19.2 427.6,19.2 C425.75,19.2 423.75,19.15 421.4,18.95 C420.7,18.95 420.15,18.9 419.9,18.9 C419.45,18.85 419.15,18.85 419.05,18.85 C418.8,18.8 418.65,18.8 418.55,18.8 C418.5,18.8 418.4,18.8 418.25,18.85 Z M432.6,34.85 C430.95,34.25 430,34.05 428.5,34.05 C425.3,34.05 423.3,35.3 423.3,37.35 C423.3,39.2 425.1,40.45 427.9,40.45 C429.75,40.45 431.2,39.9 431.95,38.9 C432.4,38.3 432.6,37.55 432.6,36.2 L432.6,34.85 Z M413.05,45.5 L407.05,45.85 C407,45.35 407,45.05 406.8,43.9 C405.85,38.05 405.45,33.25 405.45,28 C405.45,23.5 405.75,19.1 406.4,14.75 C406.65,13.25 406.65,13.25 407.75,7.6 C408.1,5.85 408.3,4.4 408.3,3.9 L408.3,3.7 L415.05,4.4 C413,8.75 411.1,20.8 411.05,29.5 C411,31.3 411,31.3 411,32.1 L411,32.9 C411,33.3 411,33.4 410.95,33.95 L411,33.95 C411.25,33.4 411.25,33.4 411.6,32.5 C411.7,32.15 411.95,31.6 412.2,30.8 C412.65,29.75 412.65,29.75 413.15,28.55 C413.25,28.4 413.3,28.25 413.75,27 L417.9,28.85 C414.95,34.65 412.95,40.85 412.95,44.15 C412.95,44.5 412.95,44.55 413.05,45.5 Z M477.95,44.6 L472.05,44.6 C471.8,43 471,40.65 469.85,37.85 L462.65,20.7 C461.7,18.45 461.25,17.1 460.1,13.05 C460.3,15.7 460.5,19.8 460.5,20.9 L460.5,37.3 C460.5,40.75 460.6,42.65 460.9,44.6 L453.9,44.6 C454.2,42.6 454.3,40.65 454.3,37.3 L454.3,12.2 C454.3,8.95 454.2,6.85 453.9,4.8 L463.05,4.8 C463.4,6.55 464.05,8.65 464.9,10.75 L475.05,35.55 L485.15,10.75 C486.15,8.3 486.6,6.7 486.95,4.8 L496.15,4.8 C495.85,7.2 495.75,8.85 495.75,12.2 L495.75,37.3 C495.75,40.95 495.85,42.75 496.15,44.6 L489.15,44.6 C489.45,42.55 489.55,40.75 489.55,37.3 L489.55,20.7 C489.75,16.35 489.9,13.8 489.95,13.05 C489.3,15.75 488.35,18.55 487.65,20.35 L480.15,37.95 C479.15,40.3 478.25,43.1 477.95,44.6 Z M539.55,44.6 L531.35,44.6 C531.05,42.95 530.5,40.8 529.95,39.35 L527.95,33.9 L511.95,33.9 L509.95,39.35 C509.05,41.75 508.85,42.5 508.45,44.6 L500.25,44.6 C501,43.25 502,41 502.9,38.7 L513.9,9.85 C514.85,7.35 515.25,6.1 515.5,4.8 L524.2,4.8 C524.45,6 524.75,6.8 525.9,9.85 L537,38.7 C538.25,41.9 538.85,43.3 539.55,44.6 Z M526.15,28.15 L520.8,13.35 C520.6,12.8 520.45,12.2 519.9,10.55 C519.1,12.9 519.1,12.9 518.95,13.35 L513.75,28.15 L526.15,28.15 Z M544.05,38.15 L544.05,11.15 C544.05,8.35 543.95,6.85 543.65,4.65 C545.65,4.75 546.85,4.8 550,4.8 L559.05,4.8 C565.3,4.8 569.35,6.1 572.55,9.2 C576.2,12.65 578.1,17.85 578.1,24.35 C578.1,31.15 576.1,36.55 572.2,40.25 C569,43.25 565,44.6 559.1,44.6 L550,44.6 C546.95,44.6 545.7,44.65 543.65,44.75 C543.95,42.7 544.05,41.15 544.05,38.15 Z M550.7,38.7 L558.65,38.7 C562.75,38.7 565.4,37.75 567.5,35.5 C569.9,32.95 571.15,29.1 571.15,24.4 C571.15,19.65 570,16.1 567.7,13.7 C565.65,11.55 563.05,10.7 558.7,10.7 L550.7,10.7 L550.7,38.7 Z M601.25,4 C606.75,4 611,5.6 614.4,9 C618.05,12.65 620,18.1 620,24.6 C620,37.25 612.65,45.45 601.3,45.45 C589.95,45.45 582.65,37.3 582.65,24.6 C582.65,18.15 584.65,12.6 588.35,9 C591.8,5.6 595.95,4 601.25,4 Z M601.4,39.5 C608.55,39.5 613,33.8 613,24.6 C613,19.55 611.6,15.5 609.05,12.95 C607,10.95 604.35,9.9 601.35,9.9 C594.15,9.9 589.6,15.6 589.6,24.65 C589.6,29.65 591.05,33.85 593.65,36.45 C595.7,38.45 598.35,39.5 601.4,39.5 Z M662.15,44.6 L653.95,44.6 C653.65,42.95 653.1,40.8 652.55,39.35 L650.55,33.9 L634.55,33.9 L632.55,39.35 C631.65,41.75 631.45,42.5 631.05,44.6 L622.85,44.6 C623.6,43.25 624.6,41 625.5,38.7 L636.5,9.85 C637.45,7.35 637.85,6.1 638.1,4.8 L646.8,4.8 C647.05,6 647.35,6.8 648.5,9.85 L659.6,38.7 C660.85,41.9 661.45,43.3 662.15,44.6 Z M648.75,28.15 L643.4,13.35 C643.2,12.8 643.05,12.2 642.5,10.55 C641.7,12.9 641.7,12.9 641.55,13.35 L636.35,28.15 L648.75,28.15 Z M698.35,16.5 L703.4,14 C706.85,18.75 709.45,24.15 710.9,29.9 L705.2,32.75 C704.2,27.5 701.1,20.15 698.35,16.5 Z M683.65,5.5 L683.55,6.15 C683.3,7.6 682.95,9.65 682.45,12.35 C682.3,13.2 682.3,13.2 682.15,13.85 C683.65,13.8 684.35,13.75 685.25,13.75 C688.55,13.75 691,14.65 692.65,16.4 C694.35,18.3 695,20.7 695,25.25 C695,33.85 693.55,40.7 691.15,43.45 C689.75,45.1 688.25,45.7 685.6,45.7 C683.3,45.7 681.25,45.3 677.9,44.2 C677.95,43.25 678,42.5 678,42 C678,40.7 677.9,39.7 677.5,37.75 C680.2,38.95 683.05,39.75 684.8,39.75 C686.25,39.75 687.05,38.8 687.8,36.35 C688.6,33.75 689.1,29.2 689.1,24.95 C689.1,20.35 687.95,19 684.1,19 C683.05,19 682.25,19.05 681.1,19.15 C678.65,29.4 676.4,35.45 670.9,46.35 L665.1,43.15 C668.95,37.9 672.8,28.9 675.15,19.6 C674.4,19.7 674.4,19.7 672.8,20 L668.25,20.75 C667.45,20.9 666.9,21.05 666.2,21.25 L665.6,15.35 C667.85,15.3 670.45,15.05 676.25,14.3 C677.2,8.75 677.55,5.9 677.55,4.2 L677.55,3.3 L684.05,3.95 C683.9,4.35 683.75,5 683.65,5.5 Z M695.25,5.85 L698.75,4.1 C700.95,6.45 702.3,8.35 704,11.45 L700.5,13.3 C698.85,10.25 697.45,8.25 695.25,5.85 Z M709.95,8.2 L706.5,10.15 C705,7.4 703.35,5.05 701.4,2.9 L704.75,1.15 C707,3.45 708.4,5.35 709.95,8.2 Z M732.85,4.85 L735.15,7.45 C734.7,8.15 734.55,8.45 733.65,10.25 C733.15,11.15 732.3,12.7 731.55,13.9 C733.85,13.9 734.95,13.85 736.3,13.7 C736.2,14.55 736.2,14.85 736.15,16.25 C738.55,15.1 739.7,14.3 740.95,12.95 C742.1,11.75 742.65,10.6 743.1,8.4 L741.7,8.4 C739.65,8.4 738.35,8.5 737.25,8.65 L737.25,3.4 C738.75,3.65 740.1,3.7 742.5,3.7 L754.8,3.7 C756.7,3.7 758,3.65 759.25,3.5 C759.1,4.6 759,6.05 758.8,8.9 C758.45,13 757.8,16.05 756.95,17.3 C756.1,18.55 754.95,18.95 751.85,18.95 C751.05,18.95 751.05,18.95 748.2,18.85 C748,16.5 747.8,15.7 747.05,13.9 C748.8,14.25 750.05,14.4 750.9,14.4 C752.2,14.4 752.7,14.15 752.95,13.4 C753.25,12.4 753.5,10.7 753.7,8.4 L748.4,8.4 C747.65,11.9 747.1,13.35 745.55,15.45 C744.1,17.45 742.4,18.9 740.05,20.25 L744.7,21.25 C744.25,23.3 744.25,23.3 744.1,24.05 L746.8,24.05 L746.8,23.65 C746.8,22.2 746.7,21.15 746.5,20 L752.15,20 C752.05,21.25 752,22.35 752,23.65 L752,24.05 L755.1,24.05 C757.35,24.05 758.55,23.95 759.55,23.75 L759.55,29 C758.4,28.85 757.05,28.8 755.1,28.8 L752,28.8 L752,33.3 L755.85,33.3 C758,33.3 759.2,33.25 760.65,33.05 L760.65,38.35 C759.35,38.2 758.25,38.15 755.95,38.15 L752,38.15 L752,43.15 C752,45.35 752.05,46.55 752.3,48.05 L746.5,48.05 C746.7,46.5 746.8,45.3 746.8,43.15 L746.8,38.15 L741.8,38.15 C739.8,38.15 738.75,38.2 737.3,38.4 L737.3,33.05 C738.75,33.25 739.8,33.3 741.85,33.3 L746.8,33.3 L746.8,28.8 L742.75,28.8 C742.3,30.15 742,30.85 741.15,32.65 C739,31.3 738.05,30.8 736.7,30.35 C738.2,27.75 738.75,26.3 739.35,23.75 C739.6,22.6 739.9,20.95 739.9,20.45 C739.9,20.45 739.9,20.35 739.85,20.3 L739.3,20.65 C738.6,19.25 737.75,18.1 736.15,16.5 L736.15,42.95 C736.15,46.5 734.75,47.45 729.65,47.45 C729.1,47.45 728.25,47.45 726.55,47.4 C726.35,45.45 726.1,44.2 725.4,42.4 C727.5,42.65 728.8,42.75 729.6,42.75 C731.25,42.75 731.7,42.5 731.7,41.7 L731.7,35.6 L721.45,35.6 C720.85,41.7 720.3,43.9 718.45,47.85 C716.5,45.65 715.95,45.1 714.3,43.95 C716.75,39.6 717.3,35.15 717.3,20.65 L717.3,17.9 C716.55,16.8 715.85,16.05 714,14.5 C716.35,12.5 718.05,10.2 719.65,6.75 C720.7,4.6 721.2,3.1 721.5,1.35 L726.8,2.35 C726.55,2.9 726.55,2.9 725.75,5.05 L730.25,5.05 C731.7,5.05 732.2,5 732.85,4.85 Z M726.45,13.9 C727.4,12.3 728.05,11.1 728.75,9.5 L723.85,9.5 C723.05,11.1 722.25,12.4 721.25,13.9 L726.45,13.9 Z M721.75,31.25 L724.75,31.25 L724.75,26.75 L721.8,26.75 L721.8,28.7 C721.75,30.15 721.75,30.45 721.75,31.25 Z M731.7,31.25 L731.7,26.75 L728.8,26.75 L728.8,31.25 L731.7,31.25 Z M731.7,22.6 L731.7,18.35 L728.8,18.35 L728.8,22.6 L731.7,22.6 Z M724.75,18.35 L721.9,18.35 L721.9,22.6 L724.75,22.6 L724.75,18.35 Z M805.25,28.45 L795.65,28.45 C798.65,34.95 803.5,39.35 810.95,42.35 C809.6,44.1 809.05,45.25 808,48.05 C800.55,44.2 794.9,38.6 792.35,32.4 C789.9,39.5 785.6,44.25 777.8,48.4 C776.9,46.4 776.05,45.2 774.35,43.35 C782.25,40 786.35,35.55 788,28.45 L783.2,28.45 C780.9,28.45 779.1,28.55 777.6,28.75 L777.6,22.8 C779.1,23 781,23.1 783.15,23.1 L788.75,23.1 C789,20.25 789.1,17.35 789.15,14.55 L785,14.55 C782.95,14.55 780.95,14.65 779.7,14.8 L779.7,9.15 C781.25,9.3 782.9,9.4 785,9.4 L789.1,9.4 L789.1,6.7 C789.1,4.4 789,3.4 788.75,2 L794.85,2 C794.55,3.45 794.5,4.35 794.5,6.65 L794.5,9.4 L802.15,9.4 C804.5,9.4 805.65,9.35 806.8,9.2 C806.65,10.2 806.6,11.3 806.6,13.2 L806.6,23.1 C808.65,23.05 808.7,23.05 810.8,22.8 L810.8,28.75 C809.15,28.55 807.5,28.45 805.25,28.45 Z M794.05,23.1 L801.35,23.1 L801.35,14.55 L794.45,14.55 C794.4,18.55 794.3,20.5 794.05,23.1 Z M766.2,6.35 L769.7,2.35 C773.2,4.4 775.15,5.9 778.45,9 L774.95,13.5 C771.8,10.2 770.2,8.9 766.2,6.35 Z M764.35,18.8 L767.55,14.7 C771.15,16.7 772.95,18 776.55,21 L773.35,25.65 C769.95,22.5 767.95,21 764.35,18.8 Z M772,28.55 L776.4,31.7 C774.5,37.4 773.2,40.55 770.9,44.9 C770.55,45.55 769.5,47.4 769.35,47.7 L764.6,43.55 C767.4,40.15 769.4,36.1 772,28.55 Z M824.1,33.65 L818.25,33.65 C818.3,32.6 818.35,32.1 818.35,31.5 C818.35,30.95 818.35,30.95 818.2,27.9 L817.5,10.9 C817.4,8.7 817.25,6.2 817.05,4.8 L825.25,4.8 C825.1,6.15 824.9,8.75 824.8,10.9 L824.1,27.9 C824,30.85 824,30.85 824,31.55 C824,32.15 824,32.65 824.1,33.65 Z M824.8,44.6 L817.55,44.6 L817.55,37.75 L824.8,37.75 L824.8,44.6 Z"/>
    <path d="M36.2,33.7 L40.35,31.45 C39.35,30.25 39,29.75 38,28.65 C29.35,29.65 19.2,30.35 8.9,30.7 C8.3,30.7 7.45,30.75 6,30.9 L5.25,25.35 C6.5,25.45 7.3,25.5 9.1,25.5 C9.35,25.5 11,25.5 14.1,25.45 C16.45,22.65 18.4,19.8 20.1,16.45 L25.85,17.85 C23.5,21.35 22.2,23.1 20.3,25.3 C25.8,25.15 31.4,24.9 34,24.65 C32.85,23.6 32.1,23 30.1,21.4 L33.5,19.4 C27.85,19.3 26.8,18.75 26.8,16.15 L26.8,10.35 L23.2,10.35 C22.55,12.85 21.85,14.15 20.1,15.75 C17.15,18.6 13.85,20.25 7.8,21.95 C6.9,20.1 6.4,19.35 4.9,17.6 C9.9,16.6 12.7,15.6 15,14 C16.55,12.85 17.25,11.95 17.8,10.35 L8.75,10.35 L8.75,16.2 L3.3,16.2 C3.45,15.1 3.5,14.15 3.5,12.35 L3.5,9.1 C3.5,7.5 3.45,6.6 3.3,5.45 C4.85,5.6 6.4,5.65 8.8,5.65 L22.2,5.65 L22.2,4.75 C22.2,3.45 22.1,2.55 21.9,1.6 L27.9,1.6 C27.75,2.55 27.65,3.45 27.65,4.75 L27.65,5.65 L42,5.65 C44.4,5.65 45.95,5.6 47.5,5.45 C47.35,6.45 47.3,7.4 47.3,9.1 L47.3,12.3 C47.3,14.1 47.4,15.45 47.5,16.3 L43.6,16.3 C42.75,18.85 41.45,19.35 35.1,19.4 C39.05,22.35 41.85,25 45.85,29.35 L41.65,32.35 C43.85,34.85 46.15,38.15 48.8,42.75 L44.1,46 C41.25,40.35 40,38.45 36.2,33.7 Z M31.9,10.35 L31.9,14.25 C31.9,14.85 32.05,15 32.7,15.1 C33.2,15.2 34.65,15.25 36.45,15.25 C38.85,15.25 39,15.05 39.15,12.2 C40.6,12.65 41.1,12.8 42.05,12.95 L42.05,10.35 L31.9,10.35 Z M7,46.35 L2.5,42.8 C4.15,40.85 4.8,39.95 5.85,38.05 C7,35.9 7.5,34.7 8.25,32 L13.05,34.05 C11.4,39.4 9.9,42.5 7,46.35 Z M14.95,32.05 L20.65,32.05 C20.5,33.05 20.45,33.85 20.45,35.45 L20.45,40.65 C20.45,41.75 20.6,42 21.35,42.2 C21.9,42.4 22.95,42.45 24.65,42.45 C30.7,42.45 32.15,42.3 32.85,41.7 C33.35,41.25 33.6,39.6 33.65,36.85 C35.45,37.6 36.85,38 38.85,38.35 C38.3,43.7 37.75,45.25 36,46.2 C34.4,47.1 32.3,47.3 24.6,47.3 C17,47.3 15.2,46.4 15.2,42.7 L15.2,36 C15.2,34.15 15.15,33.2 14.95,32.05 Z M32.6,36.65 L28.1,39.65 C26.35,36.6 25.1,35.05 22.5,32.55 L26.9,30.15 C29.3,32.25 30.3,33.4 32.6,36.65 Z M65.25,3.95 L71.75,2.9 C71.95,6.25 73.45,13.45 75.05,18.55 C78.3,17.35 78.3,17.35 88,14.15 C88.9,13.85 89.15,13.75 89.9,13.4 L92.05,19.7 C87.7,20.55 81.15,22.45 75.55,24.5 C68.25,27.2 64.6,30.4 64.6,34 C64.6,37.65 68,39.2 76.05,39.2 C82.3,39.2 88.45,38.45 92.2,37.15 L92.75,44 C91.65,44 91.4,44.05 88.7,44.35 C83.3,44.9 80.5,45.1 77,45.1 C70.05,45.1 65.7,44.25 62.5,42.35 C59.75,40.7 58.15,37.6 58.15,34 C58.15,30.65 59.75,27.45 62.6,25.05 C64.55,23.4 66.15,22.4 69.4,20.75 C68.15,16.7 67.3,13.35 66.05,7.2 C65.55,4.8 65.5,4.7 65.25,3.95 Z M119.6,46.25 L112.75,46.25 C112.95,44.85 113.05,43.5 113.05,40.65 L113.05,8.6 C113,5.7 112.95,4.7 112.75,3.5 L119.6,3.5 C119.45,4.85 119.4,5.8 119.4,8.75 L119.4,18.05 C125.2,19.95 134.2,24.15 142.1,28.6 L138.6,34.5 C135.1,32 128,28.15 120.9,24.95 C119.75,24.4 119.6,24.35 119.2,24.1 C119.35,25.5 119.4,26.35 119.4,27.5 L119.4,40.7 C119.4,43.4 119.45,44.8 119.6,46.25 Z M129.85,7.85 L133.35,6.1 C135.55,8.45 136.9,10.35 138.6,13.45 L135.1,15.3 C133.45,12.25 132.05,10.25 129.85,7.85 Z M144.55,10.2 L141.1,12.15 C139.6,9.4 137.95,7.05 136,4.9 L139.35,3.15 C141.6,5.45 143,7.35 144.55,10.2 Z M193.8,5.75 L197.15,9.55 C196.45,10.4 196.45,10.45 195.15,13.05 C193.4,16.75 190.5,20.5 187.45,23.1 C185.45,24.85 183.8,25.95 181.45,27.25 C179.95,25.15 179.2,24.4 176.95,22.7 C180.3,21.2 182.2,20.05 184.25,18.1 C186.3,16.2 187.85,14.15 189,11.75 L162.75,11.75 C159.25,11.75 158,11.8 155.95,12.05 L155.95,5.8 C157.85,6.1 159.4,6.2 162.85,6.2 L188.95,6.2 C191.95,6.2 192.4,6.15 193.8,5.75 Z M170.05,15.85 L176.85,15.85 C176.7,16.8 176.7,16.85 176.65,19.9 C176.45,28.45 175.1,33.25 171.7,37.6 C168.7,41.45 165.05,44 158.8,46.6 C157.5,43.9 156.85,43 154.85,40.9 C158.9,39.7 161.15,38.6 163.6,36.65 C168.7,32.6 170.3,28.3 170.3,18.85 C170.3,17.35 170.25,16.9 170.05,15.85 Z M229.25,11.95 C228.3,19.8 226.55,26.7 224.05,32.35 C221.2,38.8 218,41.75 213.9,41.75 C208.2,41.75 204.1,35.95 204.1,27.9 C204.1,22.4 206.05,17.25 209.6,13.35 C213.8,8.75 219.7,6.35 226.8,6.35 C238.8,6.35 246.6,13.65 246.6,24.9 C246.6,33.55 242.1,40.45 234.45,43.55 C232.05,44.55 230.1,45.05 226.6,45.65 C225.75,43 225.15,41.9 223.55,39.8 C228.15,39.2 231.15,38.4 233.5,37.05 C237.85,34.65 240.45,29.9 240.45,24.55 C240.45,19.75 238.3,15.85 234.3,13.45 C232.75,12.55 231.45,12.15 229.25,11.95 Z M223.15,12 C220.55,12.3 218.75,13 216.7,14.45 C212.5,17.45 209.9,22.6 209.9,27.95 C209.9,32.05 211.65,35.3 213.85,35.3 C215.5,35.3 217.2,33.2 219,28.9 C220.9,24.4 222.55,17.65 223.15,12 Z M271,28.7 L271.05,38.55 C271.05,40.6 270.95,41.8 270.65,42.8 C270.2,44.55 268.4,45.7 266.05,45.7 C262.9,45.7 259.1,44.3 256.6,42.15 C254.8,40.6 253.85,38.65 253.85,36.5 C253.85,34.15 255.4,31.5 258.15,29.1 C259.95,27.55 262.15,26.25 265.45,24.85 L265.4,17.15 C265,17.15 265,17.15 263.35,17.25 C262.6,17.3 261.9,17.3 260.65,17.3 C259.9,17.3 258.5,17.25 257.9,17.25 C257.25,17.2 256.8,17.2 256.65,17.2 C256.45,17.2 256.05,17.2 255.6,17.25 L255.55,11.65 C256.95,11.95 258.95,12.1 261.6,12.1 C262.1,12.1 262.65,12.1 263.35,12.05 C264.55,12 264.8,12 265.35,12 L265.35,8.7 C265.35,5.85 265.3,4.55 265.05,2.95 L271.3,2.95 C271.05,4.55 271,5.6 271,8.4 L271,11.6 C274.75,11.15 278.1,10.5 280.65,9.7 L280.85,15.3 C279.95,15.45 279,15.6 275.55,16.2 C273.9,16.5 272.9,16.65 271,16.85 L271,23.35 C274.4,22.35 277.55,21.95 281.2,21.95 C289.55,21.95 295.5,27.05 295.5,34.15 C295.5,40.65 290.65,45.55 284.15,45.55 C280.1,45.55 277.25,43.6 275.95,40 C275.3,38.3 275.1,36.65 275.1,33.6 C277.65,32.9 278.5,32.55 280.65,31.4 C280.55,32.35 280.55,32.8 280.55,33.6 C280.55,35.7 280.75,37.05 281.25,38 C281.8,39.05 283,39.7 284.4,39.7 C287.35,39.7 289.45,37.35 289.45,34.15 C289.45,29.85 285.95,27.05 280.6,27.05 C277.6,27.05 274.55,27.6 271,28.7 Z M265.4,37.8 L265.4,30.5 C261.65,32.5 259.45,34.7 259.45,36.5 C259.45,37.35 259.95,38.1 261.1,38.8 C262.1,39.5 263.35,39.9 264.3,39.9 C265.15,39.9 265.4,39.45 265.4,37.8 Z M297.7,16.7 L293.1,20.4 C290.6,16.45 286.95,12.5 283.1,9.6 L287.8,6.45 C292.15,9.8 295.05,12.8 297.7,16.7 Z M322.5,37.45 L322.5,41.2 L341.4,41.2 L341.4,25.1 C341.4,22.85 341.35,21.65 341.2,20.55 L346.9,20.55 C346.7,21.9 346.65,23.15 346.65,25.2 L346.65,42.65 C346.65,45.05 346.75,46.85 346.95,48.2 L341.4,48.2 L341.4,46 L322.5,46 L322.5,48.2 L317.05,48.2 C317.2,46.65 317.3,44.85 317.3,42.45 L317.3,25.3 C317.3,22.9 317.25,21.85 317.05,20.65 L322.7,20.65 C322.55,21.9 322.5,22.8 322.5,25.05 L322.5,36.95 C325.65,34.6 327.2,33.1 329.4,30.1 C327.4,28.1 326.2,27.1 323.2,24.75 L326.6,21.4 C329.3,23.65 330.3,24.45 331.9,25.95 C333.25,23.25 334.25,20.45 334.6,18.45 L339.45,20.35 C339.15,20.95 339.1,21.1 338.65,22.3 C337.8,24.7 336.65,27.25 335.5,29.45 C337.75,31.7 338.6,32.65 341.1,35.6 L337.55,39.75 C335.35,36.7 334.5,35.6 332.75,33.65 C330.4,36.85 329.05,38.35 326.15,40.8 C325.25,39.65 324.6,39.1 322.5,37.45 Z M305.5,26.45 L301.55,24.85 C302.9,20.35 303.3,17.4 303.35,11.85 L307.3,12.7 C307.2,18.75 306.7,22.3 305.5,26.45 Z M313.8,48.25 L307.9,48.25 C308.15,46.55 308.25,44.3 308.25,41.95 L308.25,7.25 C308.25,5.05 308.15,3.65 307.9,1.95 L313.8,1.95 C313.55,3.7 313.5,4.95 313.5,7.25 L313.5,42.2 C313.5,44.75 313.6,46.55 313.8,48.25 Z M327.15,15.75 L322.4,17.9 C321.05,13.55 319.7,10.45 317.25,5.8 L321.9,3.6 C324.8,9.6 325.7,11.65 327.15,15.75 Z M340.6,19.5 L335.8,17.3 C339.2,12.15 340.45,9.55 342.55,2.85 L347.9,4.75 C344.8,12.2 343.3,15.3 340.6,19.5 Z M320,18.5 L316.4,20.15 C315.55,16.85 315.1,15.35 313.8,12.35 L316.95,10.9 C318.25,13.55 319,15.45 320,18.5 Z M336.45,13.85 L331.45,15.6 C329.95,10.35 329.2,8.3 327.1,3.7 L331.85,2 C333.6,5.45 334.25,7.15 336.45,13.85 Z M359.35,11 L359.1,5.15 C360.25,5.35 361.5,5.4 364.15,5.4 C367.15,5.4 371.6,5.2 373.45,4.95 C374.45,4.85 374.8,4.75 375.45,4.35 L379.4,7.75 C378.95,8.35 378.7,8.9 378.35,9.85 C378.1,10.45 375.05,19.65 374.6,21.2 C378.5,21.75 381.85,22.7 385.65,24.35 C386.05,21.8 386.15,19.75 386.15,15.1 C386.15,14 386.1,13.45 385.95,12.45 L392.25,12.7 C392.05,13.75 392,14.15 391.95,16.05 C391.8,20.45 391.55,23.45 391.05,26.65 C392.65,27.45 394.85,28.6 396.4,29.5 C397.75,30.3 397.95,30.35 398.7,30.7 L396.45,37.3 C395,36.05 392.1,34.1 389.55,32.65 C388.15,36.35 386.65,38.8 384.1,41.45 C381.9,43.75 379.4,45.6 376.55,47.1 C374.45,44.5 373.95,44 372,42.6 C375.75,40.8 377.7,39.5 379.75,37.35 C381.75,35.2 383.4,32.5 384.2,29.95 C380.65,28.25 377.7,27.3 372.95,26.5 C370.75,33.1 369.45,36.3 368,38.8 C366.15,42 363.9,43.55 361.15,43.55 C356.55,43.55 353.15,39.5 353.15,34.05 C353.15,29.45 355.4,25.55 359.35,23.1 C361.95,21.5 364.6,20.85 368.8,20.7 C370.1,16.75 370.7,14.85 371.95,10.25 C369.4,10.45 368.2,10.5 363.3,10.7 C361.25,10.8 360.35,10.85 359.35,11 Z M367.25,25.95 C363.9,26.45 362.15,27.25 360.6,28.95 C359.35,30.3 358.7,32 358.7,33.75 C358.7,35.8 359.8,37.45 361.15,37.45 C362.1,37.45 362.85,36.55 364,34.3 C365,32.3 366.2,29.2 367.25,25.95 Z M418.25,18.85 L418.35,13.1 C420.7,13.7 423.3,13.9 427.4,13.9 C429.15,13.9 430.25,13.9 432,13.8 C432,10.85 431.95,8.35 431.95,6.3 C431.95,5.2 431.9,4.45 431.8,3.9 L438.05,3.75 C437.8,5.15 437.7,7.55 437.7,11.1 L437.7,13.4 C440.3,13.1 442.5,12.7 444.45,12.2 C444.75,12.1 444.75,12.1 445.55,11.8 L445.95,11.7 L446.15,17.35 C445.65,17.4 445.6,17.4 444.7,17.6 C443,17.95 440.4,18.4 437.75,18.7 L437.75,19.8 C437.75,22.6 437.75,22.7 438.25,31.1 C441.85,32.8 443.1,33.5 446.1,35.65 C446.75,36.1 447,36.25 447.5,36.5 L445.1,42.55 C444.25,41.55 442.75,40.25 441.35,39.35 C439.65,38.25 438.5,37.5 438.2,37.3 L438.2,38 C438.2,39.1 438.05,40.1 437.8,40.8 C436.65,43.75 433.15,45.5 428.3,45.5 C421.75,45.5 417.75,42.4 417.75,37.3 C417.75,32.45 422,29.05 428.05,29.05 C429.9,29.05 431.15,29.25 432.5,29.75 C432.35,28.5 432.3,26.05 432.1,19.1 C430.1,19.15 428.9,19.2 427.6,19.2 C425.75,19.2 423.75,19.15 421.4,18.95 C420.7,18.95 420.15,18.9 419.9,18.9 C419.45,18.85 419.15,18.85 419.05,18.85 C418.8,18.8 418.65,18.8 418.55,18.8 C418.5,18.8 418.4,18.8 418.25,18.85 Z M432.6,34.85 C430.95,34.25 430,34.05 428.5,34.05 C425.3,34.05 423.3,35.3 423.3,37.35 C423.3,39.2 425.1,40.45 427.9,40.45 C429.75,40.45 431.2,39.9 431.95,38.9 C432.4,38.3 432.6,37.55 432.6,36.2 L432.6,34.85 Z M413.05,45.5 L407.05,45.85 C407,45.35 407,45.05 406.8,43.9 C405.85,38.05 405.45,33.25 405.45,28 C405.45,23.5 405.75,19.1 406.4,14.75 C406.65,13.25 406.65,13.25 407.75,7.6 C408.1,5.85 408.3,4.4 408.3,3.9 L408.3,3.7 L415.05,4.4 C413,8.75 411.1,20.8 411.05,29.5 C411,31.3 411,31.3 411,32.1 L411,32.9 C411,33.3 411,33.4 410.95,33.95 L411,33.95 C411.25,33.4 411.25,33.4 411.6,32.5 C411.7,32.15 411.95,31.6 412.2,30.8 C412.65,29.75 412.65,29.75 413.15,28.55 C413.25,28.4 413.3,28.25 413.75,27 L417.9,28.85 C414.95,34.65 412.95,40.85 412.95,44.15 C412.95,44.5 412.95,44.55 413.05,45.5 Z M477.95,44.6 L472.05,44.6 C471.8,43 471,40.65 469.85,37.85 L462.65,20.7 C461.7,18.45 461.25,17.1 460.1,13.05 C460.3,15.7 460.5,19.8 460.5,20.9 L460.5,37.3 C460.5,40.75 460.6,42.65 460.9,44.6 L453.9,44.6 C454.2,42.6 454.3,40.65 454.3,37.3 L454.3,12.2 C454.3,8.95 454.2,6.85 453.9,4.8 L463.05,4.8 C463.4,6.55 464.05,8.65 464.9,10.75 L475.05,35.55 L485.15,10.75 C486.15,8.3 486.6,6.7 486.95,4.8 L496.15,4.8 C495.85,7.2 495.75,8.85 495.75,12.2 L495.75,37.3 C495.75,40.95 495.85,42.75 496.15,44.6 L489.15,44.6 C489.45,42.55 489.55,40.75 489.55,37.3 L489.55,20.7 C489.75,16.35 489.9,13.8 489.95,13.05 C489.3,15.75 488.35,18.55 487.65,20.35 L480.15,37.95 C479.15,40.3 478.25,43.1 477.95,44.6 Z M539.55,44.6 L531.35,44.6 C531.05,42.95 530.5,40.8 529.95,39.35 L527.95,33.9 L511.95,33.9 L509.95,39.35 C509.05,41.75 508.85,42.5 508.45,44.6 L500.25,44.6 C501,43.25 502,41 502.9,38.7 L513.9,9.85 C514.85,7.35 515.25,6.1 515.5,4.8 L524.2,4.8 C524.45,6 524.75,6.8 525.9,9.85 L537,38.7 C538.25,41.9 538.85,43.3 539.55,44.6 Z M526.15,28.15 L520.8,13.35 C520.6,12.8 520.45,12.2 519.9,10.55 C519.1,12.9 519.1,12.9 518.95,13.35 L513.75,28.15 L526.15,28.15 Z M544.05,38.15 L544.05,11.15 C544.05,8.35 543.95,6.85 543.65,4.65 C545.65,4.75 546.85,4.8 550,4.8 L559.05,4.8 C565.3,4.8 569.35,6.1 572.55,9.2 C576.2,12.65 578.1,17.85 578.1,24.35 C578.1,31.15 576.1,36.55 572.2,40.25 C569,43.25 565,44.6 559.1,44.6 L550,44.6 C546.95,44.6 545.7,44.65 543.65,44.75 C543.95,42.7 544.05,41.15 544.05,38.15 Z M550.7,38.7 L558.65,38.7 C562.75,38.7 565.4,37.75 567.5,35.5 C569.9,32.95 571.15,29.1 571.15,24.4 C571.15,19.65 570,16.1 567.7,13.7 C565.65,11.55 563.05,10.7 558.7,10.7 L550.7,10.7 L550.7,38.7 Z M601.25,4 C606.75,4 611,5.6 614.4,9 C618.05,12.65 620,18.1 620,24.6 C620,37.25 612.65,45.45 601.3,45.45 C589.95,45.45 582.65,37.3 582.65,24.6 C582.65,18.15 584.65,12.6 588.35,9 C591.8,5.6 595.95,4 601.25,4 Z M601.4,39.5 C608.55,39.5 613,33.8 613,24.6 C613,19.55 611.6,15.5 609.05,12.95 C607,10.95 604.35,9.9 601.35,9.9 C594.15,9.9 589.6,15.6 589.6,24.65 C589.6,29.65 591.05,33.85 593.65,36.45 C595.7,38.45 598.35,39.5 601.4,39.5 Z M662.15,44.6 L653.95,44.6 C653.65,42.95 653.1,40.8 652.55,39.35 L650.55,33.9 L634.55,33.9 L632.55,39.35 C631.65,41.75 631.45,42.5 631.05,44.6 L622.85,44.6 C623.6,43.25 624.6,41 625.5,38.7 L636.5,9.85 C637.45,7.35 637.85,6.1 638.1,4.8 L646.8,4.8 C647.05,6 647.35,6.8 648.5,9.85 L659.6,38.7 C660.85,41.9 661.45,43.3 662.15,44.6 Z M648.75,28.15 L643.4,13.35 C643.2,12.8 643.05,12.2 642.5,10.55 C641.7,12.9 641.7,12.9 641.55,13.35 L636.35,28.15 L648.75,28.15 Z M698.35,16.5 L703.4,14 C706.85,18.75 709.45,24.15 710.9,29.9 L705.2,32.75 C704.2,27.5 701.1,20.15 698.35,16.5 Z M683.65,5.5 L683.55,6.15 C683.3,7.6 682.95,9.65 682.45,12.35 C682.3,13.2 682.3,13.2 682.15,13.85 C683.65,13.8 684.35,13.75 685.25,13.75 C688.55,13.75 691,14.65 692.65,16.4 C694.35,18.3 695,20.7 695,25.25 C695,33.85 693.55,40.7 691.15,43.45 C689.75,45.1 688.25,45.7 685.6,45.7 C683.3,45.7 681.25,45.3 677.9,44.2 C677.95,43.25 678,42.5 678,42 C678,40.7 677.9,39.7 677.5,37.75 C680.2,38.95 683.05,39.75 684.8,39.75 C686.25,39.75 687.05,38.8 687.8,36.35 C688.6,33.75 689.1,29.2 689.1,24.95 C689.1,20.35 687.95,19 684.1,19 C683.05,19 682.25,19.05 681.1,19.15 C678.65,29.4 676.4,35.45 670.9,46.35 L665.1,43.15 C668.95,37.9 672.8,28.9 675.15,19.6 C674.4,19.7 674.4,19.7 672.8,20 L668.25,20.75 C667.45,20.9 666.9,21.05 666.2,21.25 L665.6,15.35 C667.85,15.3 670.45,15.05 676.25,14.3 C677.2,8.75 677.55,5.9 677.55,4.2 L677.55,3.3 L684.05,3.95 C683.9,4.35 683.75,5 683.65,5.5 Z M695.25,5.85 L698.75,4.1 C700.95,6.45 702.3,8.35 704,11.45 L700.5,13.3 C698.85,10.25 697.45,8.25 695.25,5.85 Z M709.95,8.2 L706.5,10.15 C705,7.4 703.35,5.05 701.4,2.9 L704.75,1.15 C707,3.45 708.4,5.35 709.95,8.2 Z M732.85,4.85 L735.15,7.45 C734.7,8.15 734.55,8.45 733.65,10.25 C733.15,11.15 732.3,12.7 731.55,13.9 C733.85,13.9 734.95,13.85 736.3,13.7 C736.2,14.55 736.2,14.85 736.15,16.25 C738.55,15.1 739.7,14.3 740.95,12.95 C742.1,11.75 742.65,10.6 743.1,8.4 L741.7,8.4 C739.65,8.4 738.35,8.5 737.25,8.65 L737.25,3.4 C738.75,3.65 740.1,3.7 742.5,3.7 L754.8,3.7 C756.7,3.7 758,3.65 759.25,3.5 C759.1,4.6 759,6.05 758.8,8.9 C758.45,13 757.8,16.05 756.95,17.3 C756.1,18.55 754.95,18.95 751.85,18.95 C751.05,18.95 751.05,18.95 748.2,18.85 C748,16.5 747.8,15.7 747.05,13.9 C748.8,14.25 750.05,14.4 750.9,14.4 C752.2,14.4 752.7,14.15 752.95,13.4 C753.25,12.4 753.5,10.7 753.7,8.4 L748.4,8.4 C747.65,11.9 747.1,13.35 745.55,15.45 C744.1,17.45 742.4,18.9 740.05,20.25 L744.7,21.25 C744.25,23.3 744.25,23.3 744.1,24.05 L746.8,24.05 L746.8,23.65 C746.8,22.2 746.7,21.15 746.5,20 L752.15,20 C752.05,21.25 752,22.35 752,23.65 L752,24.05 L755.1,24.05 C757.35,24.05 758.55,23.95 759.55,23.75 L759.55,29 C758.4,28.85 757.05,28.8 755.1,28.8 L752,28.8 L752,33.3 L755.85,33.3 C758,33.3 759.2,33.25 760.65,33.05 L760.65,38.35 C759.35,38.2 758.25,38.15 755.95,38.15 L752,38.15 L752,43.15 C752,45.35 752.05,46.55 752.3,48.05 L746.5,48.05 C746.7,46.5 746.8,45.3 746.8,43.15 L746.8,38.15 L741.8,38.15 C739.8,38.15 738.75,38.2 737.3,38.4 L737.3,33.05 C738.75,33.25 739.8,33.3 741.85,33.3 L746.8,33.3 L746.8,28.8 L742.75,28.8 C742.3,30.15 742,30.85 741.15,32.65 C739,31.3 738.05,30.8 736.7,30.35 C738.2,27.75 738.75,26.3 739.35,23.75 C739.6,22.6 739.9,20.95 739.9,20.45 C739.9,20.45 739.9,20.35 739.85,20.3 L739.3,20.65 C738.6,19.25 737.75,18.1 736.15,16.5 L736.15,42.95 C736.15,46.5 734.75,47.45 729.65,47.45 C729.1,47.45 728.25,47.45 726.55,47.4 C726.35,45.45 726.1,44.2 725.4,42.4 C727.5,42.65 728.8,42.75 729.6,42.75 C731.25,42.75 731.7,42.5 731.7,41.7 L731.7,35.6 L721.45,35.6 C720.85,41.7 720.3,43.9 718.45,47.85 C716.5,45.65 715.95,45.1 714.3,43.95 C716.75,39.6 717.3,35.15 717.3,20.65 L717.3,17.9 C716.55,16.8 715.85,16.05 714,14.5 C716.35,12.5 718.05,10.2 719.65,6.75 C720.7,4.6 721.2,3.1 721.5,1.35 L726.8,2.35 C726.55,2.9 726.55,2.9 725.75,5.05 L730.25,5.05 C731.7,5.05 732.2,5 732.85,4.85 Z M726.45,13.9 C727.4,12.3 728.05,11.1 728.75,9.5 L723.85,9.5 C723.05,11.1 722.25,12.4 721.25,13.9 L726.45,13.9 Z M721.75,31.25 L724.75,31.25 L724.75,26.75 L721.8,26.75 L721.8,28.7 C721.75,30.15 721.75,30.45 721.75,31.25 Z M731.7,31.25 L731.7,26.75 L728.8,26.75 L728.8,31.25 L731.7,31.25 Z M731.7,22.6 L731.7,18.35 L728.8,18.35 L728.8,22.6 L731.7,22.6 Z M724.75,18.35 L721.9,18.35 L721.9,22.6 L724.75,22.6 L724.75,18.35 Z M805.25,28.45 L795.65,28.45 C798.65,34.95 803.5,39.35 810.95,42.35 C809.6,44.1 809.05,45.25 808,48.05 C800.55,44.2 794.9,38.6 792.35,32.4 C789.9,39.5 785.6,44.25 777.8,48.4 C776.9,46.4 776.05,45.2 774.35,43.35 C782.25,40 786.35,35.55 788,28.45 L783.2,28.45 C780.9,28.45 779.1,28.55 777.6,28.75 L777.6,22.8 C779.1,23 781,23.1 783.15,23.1 L788.75,23.1 C789,20.25 789.1,17.35 789.15,14.55 L785,14.55 C782.95,14.55 780.95,14.65 779.7,14.8 L779.7,9.15 C781.25,9.3 782.9,9.4 785,9.4 L789.1,9.4 L789.1,6.7 C789.1,4.4 789,3.4 788.75,2 L794.85,2 C794.55,3.45 794.5,4.35 794.5,6.65 L794.5,9.4 L802.15,9.4 C804.5,9.4 805.65,9.35 806.8,9.2 C806.65,10.2 806.6,11.3 806.6,13.2 L806.6,23.1 C808.65,23.05 808.7,23.05 810.8,22.8 L810.8,28.75 C809.15,28.55 807.5,28.45 805.25,28.45 Z M794.05,23.1 L801.35,23.1 L801.35,14.55 L794.45,14.55 C794.4,18.55 794.3,20.5 794.05,23.1 Z M766.2,6.35 L769.7,2.35 C773.2,4.4 775.15,5.9 778.45,9 L774.95,13.5 C771.8,10.2 770.2,8.9 766.2,6.35 Z M764.35,18.8 L767.55,14.7 C771.15,16.7 772.95,18 776.55,21 L773.35,25.65 C769.95,22.5 767.95,21 764.35,18.8 Z M772,28.55 L776.4,31.7 C774.5,37.4 773.2,40.55 770.9,44.9 C770.55,45.55 769.5,47.4 769.35,47.7 L764.6,43.55 C767.4,40.15 769.4,36.1 772,28.55 Z M824.1,33.65 L818.25,33.65 C818.3,32.6 818.35,32.1 818.35,31.5 C818.35,30.95 818.35,30.95 818.2,27.9 L817.5,10.9 C817.4,8.7 817.25,6.2 817.05,4.8 L825.25,4.8 C825.1,6.15 824.9,8.75 824.8,10.9 L824.1,27.9 C824,30.85 824,30.85 824,31.55 C824,32.15 824,32.65 824.1,33.65 Z M824.8,44.6 L817.55,44.6 L817.55,37.75 L824.8,37.75 L824.8,44.6 Z"/>
  </g>
</svg>
