<svg xmlns="http://www.w3.org/2000/svg" width="120" height="120" viewBox="0 0 120 120">
  <g fill="none" fill-rule="evenodd">
    <path fill="#FCC800" d="M120,60 C120,93.137 93.138,120 60,120 C26.863,120 0,93.137 0,60 C0,26.863 26.863,0 60,0 C93.138,0 120,26.863 120,60"/>
    <path fill="#FFF" d="M84.3457 32.5237C84.5417 32.6297 84.6857 32.7737 84.7917 32.9697 84.8977 32.7737 85.0407 32.6297 85.2377 32.5237 85.0407 32.4177 84.8977 32.2737 84.7917 32.0777 84.6857 32.2737 84.5417 32.4177 84.3457 32.5237M84.7917 35.4407C84.6377 35.4407 84.5137 35.3157 84.5137 35.1627 84.5137 32.8237 84.4917 32.8017 82.1537 32.8017 81.9987 32.8017 81.8747 32.6777 81.8747 32.5237 81.8747 32.3697 81.9987 32.2457 82.1537 32.2457 84.4917 32.2457 84.5137 32.2237 84.5137 29.8847 84.5137 29.7317 84.6377 29.6067 84.7917 29.6067 84.9457 29.6067 85.0697 29.7317 85.0697 29.8847 85.0697 32.2237 85.0917 32.2457 87.4307 32.2457 87.5837 32.2457 87.7077 32.3697 87.7077 32.5237 87.7077 32.6777 87.5837 32.8017 87.4307 32.8017 85.0917 32.8017 85.0697 32.8237 85.0697 35.1627 85.0697 35.3157 84.9457 35.4407 84.7917 35.4407M34.7627 26.6902C34.9587 26.7962 35.1027 26.9402 35.2077 27.1362 35.3147 26.9402 35.4577 26.7962 35.6547 26.6902 35.4577 26.5842 35.3147 26.4402 35.2077 26.2442 35.1027 26.4402 34.9587 26.5842 34.7627 26.6902M35.2077 29.6072C35.0547 29.6072 34.9307 29.4822 34.9307 29.3292 34.9307 26.9902 34.9087 26.9682 32.5697 26.9682 32.4157 26.9682 32.2917 26.8442 32.2917 26.6902 32.2917 26.5362 32.4157 26.4122 32.5697 26.4122 34.9087 26.4122 34.9307 26.3902 34.9307 24.0512 34.9307 23.8982 35.0547 23.7732 35.2077 23.7732 35.3627 23.7732 35.4867 23.8982 35.4867 24.0512 35.4867 26.3902 35.5077 26.4122 37.8467 26.4122 38.0007 26.4122 38.1247 26.5362 38.1247 26.6902 38.1247 26.8442 38.0007 26.9682 37.8467 26.9682 35.5077 26.9682 35.4867 26.9902 35.4867 29.3292 35.4867 29.4822 35.3627 29.6072 35.2077 29.6072"/>
    <path fill="#0094DE" d="M73.8545,34.8569 C73.8545,35.1779 73.5915,35.4399 73.2705,35.4399 L64.2295,35.4399 C63.9085,35.4399 63.6455,35.1779 63.6455,34.8569 L63.6455,27.2739 C63.6455,26.9529 63.9085,26.6899 64.2295,26.6899 L73.2705,26.6899 C73.5915,26.6899 73.8545,26.9529 73.8545,27.2739 L73.8545,34.8569 Z M56.3545,34.8569 C56.3545,35.1779 56.0915,35.4399 55.7705,35.4399 L46.7295,35.4399 C46.4085,35.4399 46.1455,35.1779 46.1455,34.8569 L46.1455,27.2739 C46.1455,26.9529 46.4085,26.6899 46.7295,26.6899 L55.7705,26.6899 C56.0915,26.6899 56.3545,26.9529 56.3545,27.2739 L56.3545,34.8569 Z M77.5005,17.9399 L62.9005,17.9399 C62.2345,18.8209 61.1885,19.3989 60.0005,19.3989 C58.8115,19.3989 57.7655,18.8209 57.0995,17.9399 L42.5005,17.9399 C41.6985,17.9399 41.0415,18.5969 41.0415,19.3989 L41.0415,51.4819 C41.0415,52.2839 41.6985,52.9399 42.5005,52.9399 L47.4585,52.9399 L55.0425,52.9399 C55.3625,52.9399 55.6255,52.6779 55.6255,52.3569 L55.6255,41.8569 C55.6255,41.5359 55.8875,41.2739 56.2085,41.2739 L63.7915,41.2739 C64.1125,41.2739 64.3755,41.5359 64.3755,41.8569 L64.3755,52.3569 C64.3755,52.6779 64.6375,52.9399 64.9585,52.9399 L72.5425,52.9399 L77.5005,52.9399 C78.3015,52.9399 78.9585,52.2839 78.9585,51.4819 L78.9585,19.3989 C78.9585,18.5969 78.3015,17.9399 77.5005,17.9399 Z"/>
    <polygon fill="#0094DE" points="50.958 36.841 51.542 36.841 51.542 25.174 50.958 25.174"/>
    <polygon fill="#0094DE" points="50.375 31.737 50.958 31.737 50.958 30.279 50.375 30.279"/>
    <polygon fill="#0094DE" points="67.875 31.737 68.458 31.737 68.458 30.279 67.875 30.279"/>
    <polygon fill="#0094DE" points="68.458 36.841 69.042 36.841 69.042 25.174 68.458 25.174"/>
    <path fill="#0094DE" d="M58.543,47.1072 C58.543,47.5102 58.216,47.8362 57.814,47.8362 C57.411,47.8362 57.084,47.5102 57.084,47.1072 C57.084,46.7042 57.411,46.3782 57.814,46.3782 C58.216,46.3782 58.543,46.7042 58.543,47.1072"/>
    <path fill="#FFF" d="M22.934,71.492 L22.952,75.038 C22.952,75.776 22.916,76.208 22.808,76.568 C22.646,77.198 21.998,77.612 21.152,77.612 C20.018,77.612 18.65,77.108 17.75,76.334 C17.102,75.776 16.76,75.074 16.76,74.3 C16.76,73.454 17.318,72.5 18.308,71.636 C18.956,71.078 19.748,70.61 20.936,70.106 L20.918,67.334 C20.774,67.334 20.774,67.334 20.18,67.37 C19.91,67.388 19.658,67.388 19.208,67.388 C18.938,67.388 18.434,67.37 18.218,67.37 C17.984,67.352 17.822,67.352 17.768,67.352 C17.696,67.352 17.552,67.352 17.39,67.37 L17.372,65.354 C17.876,65.462 18.596,65.516 19.55,65.516 C19.73,65.516 19.928,65.516 20.18,65.498 C20.612,65.48 20.702,65.48 20.9,65.48 L20.9,64.292 C20.9,63.266 20.882,62.798 20.792,62.222 L23.042,62.222 C22.952,62.798 22.934,63.176 22.934,64.184 L22.934,65.336 C24.284,65.174 25.49,64.94 26.408,64.652 L26.48,66.668 C26.156,66.722 25.814,66.776 24.572,66.992 C23.978,67.1 23.618,67.154 22.934,67.226 L22.934,69.566 C24.158,69.206 25.292,69.062 26.606,69.062 C29.612,69.062 31.754,70.898 31.754,73.454 C31.754,75.794 30.008,77.558 27.668,77.558 C26.21,77.558 25.184,76.856 24.716,75.56 C24.482,74.948 24.41,74.354 24.41,73.256 C25.328,73.004 25.634,72.878 26.408,72.464 C26.372,72.806 26.372,72.968 26.372,73.256 C26.372,74.012 26.444,74.498 26.624,74.84 C26.822,75.218 27.254,75.452 27.758,75.452 C28.82,75.452 29.576,74.606 29.576,73.454 C29.576,71.906 28.316,70.898 26.39,70.898 C25.31,70.898 24.212,71.096 22.934,71.492 Z M20.918,74.768 L20.918,72.14 C19.568,72.86 18.776,73.652 18.776,74.3 C18.776,74.606 18.956,74.876 19.37,75.128 C19.73,75.38 20.18,75.524 20.522,75.524 C20.828,75.524 20.918,75.362 20.918,74.768 Z M32.546,67.172 L30.89,68.504 C29.99,67.082 28.676,65.66 27.29,64.616 L28.982,63.482 C30.548,64.688 31.592,65.768 32.546,67.172 Z M39.458,73.184 L38.432,73.184 C37.568,73.184 36.956,73.202 36.488,73.238 C36.56,72.716 36.578,72.158 36.578,71.33 L36.578,64.76 C36.578,63.77 36.542,62.978 36.488,62.51 C37.028,62.582 37.55,62.6 38.378,62.6 L46.676,62.6 C47.504,62.6 48.062,62.582 48.584,62.51 C48.53,62.942 48.494,63.77 48.494,64.76 L48.494,71.33 C48.494,72.194 48.512,72.734 48.584,73.238 C48.116,73.202 47.414,73.184 46.676,73.184 L45.128,73.184 L45.128,75.956 C45.128,76.46 45.29,76.514 46.694,76.514 C48.08,76.514 48.44,76.442 48.656,76.136 C48.836,75.884 48.926,75.2 48.98,73.832 C49.718,74.228 50.15,74.408 50.834,74.588 C50.654,76.586 50.474,77.252 50.024,77.684 C49.52,78.152 48.746,78.296 46.712,78.296 C43.724,78.296 43.184,78.044 43.184,76.694 L43.184,73.184 L41.564,73.184 C41.348,74.57 40.772,75.668 39.854,76.514 C38.72,77.576 37.352,78.206 35.282,78.674 C34.976,77.918 34.76,77.54 34.238,76.91 C35.93,76.604 36.884,76.28 37.748,75.722 C38.72,75.092 39.242,74.318 39.458,73.184 Z M38.468,64.4 L38.468,65.57 L46.586,65.57 L46.586,64.4 L38.468,64.4 Z M38.468,67.262 L38.468,68.468 L46.586,68.468 L46.586,67.262 L38.468,67.262 Z M38.468,70.16 L38.468,71.438 L46.586,71.438 L46.586,70.16 L38.468,70.16 Z M57.89,68.468 L57.89,68.126 C57.548,68.09 57.296,68.072 56.864,68.072 L56.522,68.072 C56.72,68.594 56.81,68.792 57.08,69.224 C57.548,70.016 57.926,70.484 58.592,71.078 C58.25,71.51 57.998,71.888 57.728,72.518 C57.188,71.888 56.882,71.402 56.36,70.358 C56.414,70.97 56.414,70.97 56.468,72.5 L56.468,76.352 C56.468,77.396 56.486,77.972 56.576,78.476 L54.542,78.476 C54.614,77.864 54.65,77.252 54.65,76.37 L54.65,73.832 C54.65,72.95 54.704,72.014 54.776,71.15 C54.362,72.572 53.768,73.76 53.012,74.768 C52.724,74.12 52.508,73.76 52.004,73.076 C52.76,72.23 53.3,71.33 53.822,70.07 C54.164,69.26 54.38,68.594 54.506,68.072 L53.75,68.072 C53.138,68.072 52.832,68.09 52.382,68.162 L52.382,66.254 C52.814,66.326 53.156,66.344 53.804,66.344 L54.65,66.344 L54.65,64.508 C54.11,64.652 53.84,64.706 52.94,64.868 C52.76,64.22 52.652,63.95 52.256,63.194 C54.002,62.978 55.298,62.654 56.558,62.132 C56.9,62.006 57.098,61.898 57.296,61.772 L58.34,63.356 C58.232,63.392 58.196,63.41 58.034,63.464 C57.566,63.662 57.206,63.788 56.468,64.022 L56.468,66.344 L56.9,66.344 C57.476,66.344 57.746,66.326 58.088,66.272 L58.088,66.866 C58.466,66.902 58.844,66.92 59.564,66.92 L62.246,66.92 L62.246,66.29 L60.23,66.29 C59.492,66.29 59.204,66.308 58.772,66.344 L58.772,64.94 C59.186,64.994 59.582,65.012 60.23,65.012 L62.246,65.012 L62.246,64.4 L59.996,64.4 C59.258,64.4 58.934,64.418 58.412,64.49 L58.412,62.924 C58.898,62.996 59.402,63.014 60.122,63.014 L62.246,63.014 C62.246,62.474 62.228,62.204 62.138,61.844 L64.172,61.844 C64.1,62.168 64.064,62.474 64.064,63.014 L66.53,63.014 C67.232,63.014 67.754,62.978 68.276,62.906 L68.276,64.49 C67.736,64.418 67.412,64.4 66.674,64.4 L64.064,64.4 L64.064,65.012 L66.314,65.012 C67.016,65.012 67.412,64.994 67.826,64.94 L67.826,66.344 C67.394,66.308 67.106,66.29 66.332,66.29 L64.064,66.29 L64.064,66.92 L67.052,66.92 C67.808,66.92 68.24,66.902 68.726,66.83 L68.726,68.468 C68.15,68.396 67.79,68.378 67.052,68.378 L59.564,68.378 C58.862,68.378 58.43,68.396 57.89,68.468 Z M60.734,75.776 L60.266,75.776 C59.114,75.794 59.114,75.794 58.718,75.83 C58.772,75.38 58.79,74.876 58.79,74.21 L58.79,70.376 C58.79,69.512 58.79,69.296 58.736,68.864 C59.15,68.9 59.474,68.9 60.23,68.9 L66.17,68.9 C67.016,68.9 67.322,68.9 67.718,68.846 C67.664,69.26 67.646,69.584 67.646,70.448 L67.646,74.192 C67.646,75.056 67.664,75.416 67.718,75.83 C67.232,75.794 66.782,75.776 66.206,75.776 L65.594,75.776 C66.746,76.334 67.79,76.676 69.176,76.928 C68.636,77.63 68.474,77.918 68.186,78.602 C66.332,78.08 65.378,77.63 64.01,76.64 L64.766,75.776 L61.472,75.776 L62.3,76.64 C60.914,77.666 59.996,78.098 58.124,78.602 C57.638,77.63 57.584,77.54 57.188,77.018 C58.718,76.73 59.528,76.46 60.734,75.776 Z M60.572,70.268 L60.572,70.862 L65.846,70.862 L65.846,70.268 L60.572,70.268 Z M60.572,72.014 L60.572,72.608 L65.846,72.608 L65.846,72.014 L60.572,72.014 Z M60.572,73.742 L60.572,74.372 L65.846,74.372 L65.846,73.742 L60.572,73.742 Z M71.372,71.222 L71.57,69.152 C72.398,69.476 72.902,69.584 74.738,69.836 C74.81,69.188 74.972,67.982 75.062,67.316 C74,67.172 73.712,67.136 72.488,66.866 C72.236,66.812 72.146,66.794 71.876,66.74 L72.056,64.76 C72.812,65.048 74.09,65.3 75.314,65.408 C75.566,63.896 75.674,62.96 75.674,62.42 C75.674,62.366 75.674,62.33 75.656,62.24 L78.05,62.456 C77.852,63.014 77.798,63.284 77.474,65.498 C79.508,65.462 80.552,65.372 81.578,65.12 L81.506,67.226 C81.272,67.244 81.182,67.262 80.786,67.298 C79.49,67.406 78.914,67.442 78.266,67.442 C78.086,67.442 77.924,67.442 77.15,67.424 C76.97,68.738 76.916,69.098 76.808,69.962 C77.348,69.98 77.492,69.98 77.69,69.98 C78.968,69.98 80.264,69.854 81.128,69.62 L81.074,71.69 C80.894,71.69 80.84,71.69 80.534,71.744 C79.742,71.834 78.68,71.906 77.834,71.906 C77.546,71.906 77.384,71.906 76.682,71.87 C76.628,72.356 76.592,72.824 76.592,73.148 C76.592,74.03 76.79,74.588 77.258,75.002 C77.78,75.452 78.5,75.668 79.49,75.668 C81.776,75.668 83.09,74.66 83.09,72.896 C83.09,71.852 82.55,70.844 81.47,69.854 C82.478,69.782 82.856,69.71 83.702,69.404 C84.152,69.926 84.35,70.196 84.548,70.538 C85.016,71.33 85.322,72.356 85.322,73.184 C85.322,74.462 84.692,75.704 83.594,76.55 C82.568,77.342 81.218,77.738 79.526,77.738 C76.25,77.738 74.468,76.172 74.468,73.274 C74.468,72.806 74.486,72.356 74.558,71.744 C73.478,71.6 72.776,71.492 72.056,71.33 C71.678,71.24 71.624,71.24 71.372,71.222 Z M91.604,62.168 L93.89,62.294 C93.674,62.906 93.584,63.374 93.242,65.768 C93.116,66.524 93.044,67.136 93.008,67.568 L93.062,67.568 C93.098,67.46 93.098,67.46 93.17,67.172 C93.35,66.542 93.818,65.66 94.304,65.03 C95.294,63.806 96.41,63.194 97.724,63.194 C98.948,63.194 100.028,63.77 100.802,64.814 C101.702,66.02 102.098,67.478 102.098,69.602 C102.098,73.076 100.478,75.668 97.454,77 C96.536,77.414 95.276,77.774 93.926,78.008 C93.566,76.982 93.368,76.586 92.864,75.884 C94.664,75.686 95.708,75.416 96.806,74.858 C98.894,73.796 99.848,72.086 99.848,69.35 C99.848,66.758 98.984,65.318 97.436,65.318 C96.752,65.318 96.122,65.624 95.492,66.272 C94.088,67.73 93.224,69.944 93.224,72.086 L93.224,72.464 L91.064,72.5 C91.082,72.392 91.082,72.302 91.082,72.266 L91.082,71.924 C91.064,71.402 91.028,70.07 91.028,69.71 C91.028,68.252 91.136,66.254 91.28,65.012 L91.55,62.78 C91.586,62.474 91.604,62.402 91.604,62.168 Z M42.869,89.622 L42.869,87.948 C42.365,88.434 42.095,88.65 41.393,89.208 C40.835,88.524 40.601,88.272 40.079,87.84 C41.771,86.616 42.761,85.608 43.427,84.366 C43.589,84.06 43.733,83.754 43.805,83.484 L45.893,83.88 C45.749,84.096 45.749,84.096 45.515,84.528 C45.335,84.834 45.191,85.068 44.939,85.446 L53.669,85.446 C54.767,85.446 55.379,85.41 55.937,85.338 L55.937,87.318 C55.343,87.264 55.091,87.246 54.173,87.228 L54.173,89.622 L54.875,89.622 C55.721,89.622 56.117,89.604 56.639,89.514 L56.639,91.53 C56.117,91.44 55.703,91.422 54.875,91.422 L54.173,91.422 L54.173,93.834 L54.533,93.834 C55.379,93.834 55.775,93.816 56.243,93.744 L56.243,95.724 C55.775,95.634 55.343,95.616 54.569,95.616 L42.293,95.616 C41.591,95.616 41.195,95.634 40.691,95.724 L40.691,93.744 C41.177,93.816 41.645,93.834 42.455,93.834 L42.869,93.834 L42.869,91.422 L42.095,91.422 C41.285,91.422 40.871,91.44 40.331,91.53 L40.331,89.514 C40.853,89.604 41.249,89.622 42.095,89.622 L42.869,89.622 Z M44.651,87.228 L44.651,89.622 L46.109,89.622 L46.109,87.228 L44.651,87.228 Z M44.651,91.422 L44.651,93.834 L46.109,93.834 L46.109,91.422 L44.651,91.422 Z M47.747,93.834 L49.241,93.834 L49.241,91.422 L47.747,91.422 L47.747,93.834 Z M47.747,89.622 L49.241,89.622 L49.241,87.228 L47.747,87.228 L47.747,89.622 Z M50.861,93.834 L52.391,93.834 L52.391,91.422 L50.861,91.422 L50.861,93.834 Z M50.861,89.622 L52.391,89.622 L52.391,87.228 L50.861,87.228 L50.861,89.622 Z M56.531,99.234 L54.803,100.314 C54.155,98.82 53.705,98.064 52.643,96.552 L54.191,95.778 C55.235,97.056 55.775,97.866 56.531,99.234 Z M51.635,99.864 L49.673,100.296 C49.403,98.55 49.295,98.046 48.827,96.516 L50.573,96.12 C51.077,97.542 51.311,98.334 51.635,99.864 Z M47.459,100.17 L45.497,100.35 L45.497,99.612 C45.497,98.928 45.353,97.308 45.227,96.426 L46.973,96.228 C47.279,97.866 47.387,98.658 47.459,100.17 Z M41.879,100.422 L40.313,99.18 C41.411,98.1 41.933,97.326 42.545,95.814 L44.201,96.642 C43.463,98.388 42.995,99.126 41.879,100.422 Z M65.585,97.506 L65.171,95.58 C65.081,95.814 65.063,95.904 64.973,96.192 C64.217,95.346 63.713,94.644 63.155,93.654 C63.245,94.878 63.263,95.13 63.263,95.706 L63.263,98.676 C63.263,99.54 63.281,100.008 63.371,100.548 L61.283,100.548 C61.373,99.972 61.409,99.432 61.409,98.64 L61.409,96.318 C61.409,95.598 61.445,94.752 61.481,94.158 C60.671,96.138 60.095,97.146 59.141,98.208 C58.943,97.506 58.619,96.858 58.223,96.354 C58.979,95.58 59.555,94.788 60.167,93.69 C60.545,93.024 60.617,92.844 61.121,91.656 L60.185,91.656 C59.393,91.656 58.997,91.674 58.565,91.746 L58.565,89.838 C58.979,89.91 59.357,89.928 60.185,89.928 L61.391,89.928 L61.391,85.662 C61.391,84.852 61.373,84.33 61.301,83.898 L63.353,83.898 C63.281,84.366 63.263,84.78 63.263,85.644 L63.263,89.928 L64.109,89.928 C64.793,89.928 65.099,89.91 65.495,89.856 L65.495,91.728 C65.063,91.674 64.703,91.656 64.073,91.656 L63.425,91.656 C64.091,92.79 64.757,93.6 65.747,94.41 C65.495,94.86 65.423,95.022 65.243,95.418 C65.657,95.4 66.287,95.292 66.899,95.166 L71.111,94.23 L71.111,86.004 C71.111,84.96 71.093,84.474 71.003,83.916 L73.181,83.916 C73.091,84.51 73.073,84.996 73.073,85.986 L73.073,93.798 C73.811,93.618 74.135,93.528 74.603,93.348 L74.981,95.4 C74.495,95.454 73.991,95.544 73.253,95.724 L73.073,95.76 L73.073,98.388 C73.073,99.396 73.091,99.936 73.181,100.512 L71.003,100.512 C71.093,99.9 71.111,99.468 71.111,98.37 L71.111,96.192 L67.295,97.056 C66.503,97.236 65.981,97.38 65.585,97.506 Z M58.439,85.572 L59.969,84.888 C60.545,86.49 60.815,87.408 61.067,88.776 L59.555,89.424 C59.267,87.768 58.943,86.652 58.439,85.572 Z M64.631,84.852 L66.143,85.518 C65.675,87.174 65.441,87.804 64.703,89.424 L63.389,88.74 C63.965,87.534 64.271,86.598 64.631,84.852 Z M66.341,86.49 L67.601,85.104 C69.149,86.184 69.725,86.688 70.751,87.75 L69.527,89.262 C68.195,87.84 68.105,87.768 66.341,86.49 Z M65.783,90.936 L67.043,89.604 C68.465,90.576 69.239,91.242 70.175,92.25 L68.951,93.708 C67.691,92.358 67.079,91.818 65.783,90.936 Z M79.553,95.274 L77.447,95.274 C77.465,94.896 77.483,94.716 77.483,94.5 C77.483,94.302 77.483,94.302 77.429,93.204 L77.177,87.084 C77.141,86.292 77.087,85.392 77.015,84.888 L79.967,84.888 C79.913,85.374 79.841,86.31 79.805,87.084 L79.553,93.204 C79.517,94.266 79.517,94.266 79.517,94.518 C79.517,94.734 79.517,94.914 79.553,95.274 Z M79.805,99.216 L77.195,99.216 L77.195,96.75 L79.805,96.75 L79.805,99.216 Z"/>
  </g>
</svg>
