<svg xmlns="http://www.w3.org/2000/svg" width="120" height="120" viewBox="0 0 120 120">
  <g fill="none" fill-rule="evenodd">
    <path fill="#8FC31F" d="M120,60 C120,93.137 93.138,120 60,120 C26.863,120 0,93.137 0,60 C0,26.863 26.863,0 60,0 C93.138,0 120,26.863 120,60"/>
    <path fill="#FFF" d="M84.3457 32.5237C84.5417 32.6297 84.6857 32.7737 84.7917 32.9697 84.8977 32.7737 85.0407 32.6297 85.2377 32.5237 85.0407 32.4177 84.8977 32.2737 84.7917 32.0777 84.6857 32.2737 84.5417 32.4177 84.3457 32.5237M84.7917 35.4407C84.6377 35.4407 84.5137 35.3157 84.5137 35.1627 84.5137 32.8237 84.4917 32.8017 82.1537 32.8017 81.9987 32.8017 81.8747 32.6777 81.8747 32.5237 81.8747 32.3697 81.9987 32.2457 82.1537 32.2457 84.4917 32.2457 84.5137 32.2237 84.5137 29.8847 84.5137 29.7317 84.6377 29.6067 84.7917 29.6067 84.9457 29.6067 85.0697 29.7317 85.0697 29.8847 85.0697 32.2237 85.0917 32.2457 87.4307 32.2457 87.5837 32.2457 87.7077 32.3697 87.7077 32.5237 87.7077 32.6777 87.5837 32.8017 87.4307 32.8017 85.0917 32.8017 85.0697 32.8237 85.0697 35.1627 85.0697 35.3157 84.9457 35.4407 84.7917 35.4407M34.7627 26.6902C34.9587 26.7962 35.1027 26.9402 35.2077 27.1362 35.3147 26.9402 35.4577 26.7962 35.6547 26.6902 35.4577 26.5842 35.3147 26.4402 35.2077 26.2442 35.1027 26.4402 34.9587 26.5842 34.7627 26.6902M35.2077 29.6072C35.0547 29.6072 34.9307 29.4822 34.9307 29.3292 34.9307 26.9902 34.9087 26.9682 32.5697 26.9682 32.4157 26.9682 32.2917 26.8442 32.2917 26.6902 32.2917 26.5362 32.4157 26.4122 32.5697 26.4122 34.9087 26.4122 34.9307 26.3902 34.9307 24.0512 34.9307 23.8982 35.0547 23.7732 35.2077 23.7732 35.3627 23.7732 35.4867 23.8982 35.4867 24.0512 35.4867 26.3902 35.5077 26.4122 37.8467 26.4122 38.0007 26.4122 38.1247 26.5362 38.1247 26.6902 38.1247 26.8442 38.0007 26.9682 37.8467 26.9682 35.5077 26.9682 35.4867 26.9902 35.4867 29.3292 35.4867 29.4822 35.3627 29.6072 35.2077 29.6072"/>
    <path fill="#0094DE" d="M73.8545,34.8569 C73.8545,35.1779 73.5915,35.4399 73.2705,35.4399 L64.2295,35.4399 C63.9085,35.4399 63.6455,35.1779 63.6455,34.8569 L63.6455,27.2739 C63.6455,26.9529 63.9085,26.6899 64.2295,26.6899 L73.2705,26.6899 C73.5915,26.6899 73.8545,26.9529 73.8545,27.2739 L73.8545,34.8569 Z M56.3545,34.8569 C56.3545,35.1779 56.0915,35.4399 55.7705,35.4399 L46.7295,35.4399 C46.4085,35.4399 46.1455,35.1779 46.1455,34.8569 L46.1455,27.2739 C46.1455,26.9529 46.4085,26.6899 46.7295,26.6899 L55.7705,26.6899 C56.0915,26.6899 56.3545,26.9529 56.3545,27.2739 L56.3545,34.8569 Z M77.5005,17.9399 L62.9005,17.9399 C62.2345,18.8209 61.1885,19.3989 60.0005,19.3989 C58.8115,19.3989 57.7655,18.8209 57.0995,17.9399 L42.5005,17.9399 C41.6985,17.9399 41.0415,18.5969 41.0415,19.3989 L41.0415,51.4819 C41.0415,52.2839 41.6985,52.9399 42.5005,52.9399 L47.4585,52.9399 L55.0425,52.9399 C55.3625,52.9399 55.6255,52.6779 55.6255,52.3569 L55.6255,41.8569 C55.6255,41.5359 55.8875,41.2739 56.2085,41.2739 L63.7915,41.2739 C64.1125,41.2739 64.3755,41.5359 64.3755,41.8569 L64.3755,52.3569 C64.3755,52.6779 64.6375,52.9399 64.9585,52.9399 L72.5425,52.9399 L77.5005,52.9399 C78.3015,52.9399 78.9585,52.2839 78.9585,51.4819 L78.9585,19.3989 C78.9585,18.5969 78.3015,17.9399 77.5005,17.9399 Z"/>
    <polygon fill="#0094DE" points="50.958 36.841 51.542 36.841 51.542 25.174 50.958 25.174"/>
    <polygon fill="#0094DE" points="50.375 31.737 50.958 31.737 50.958 30.279 50.375 30.279"/>
    <polygon fill="#0094DE" points="67.875 31.737 68.458 31.737 68.458 30.279 67.875 30.279"/>
    <polygon fill="#0094DE" points="68.458 36.841 69.042 36.841 69.042 25.174 68.458 25.174"/>
    <path fill="#0094DE" d="M58.543,47.1072 C58.543,47.5102 58.216,47.8362 57.814,47.8362 C57.411,47.8362 57.084,47.5102 57.084,47.1072 C57.084,46.7042 57.411,46.3782 57.814,46.3782 C58.216,46.3782 58.543,46.7042 58.543,47.1072"/>
    <path fill="#FFF" d="M32.434,73.492 L32.452,77.038 C32.452,77.776 32.416,78.208 32.308,78.568 C32.146,79.198 31.498,79.612 30.652,79.612 C29.518,79.612 28.15,79.108 27.25,78.334 C26.602,77.776 26.26,77.074 26.26,76.3 C26.26,75.454 26.818,74.5 27.808,73.636 C28.456,73.078 29.248,72.61 30.436,72.106 L30.418,69.334 C30.274,69.334 30.274,69.334 29.68,69.37 C29.41,69.388 29.158,69.388 28.708,69.388 C28.438,69.388 27.934,69.37 27.718,69.37 C27.484,69.352 27.322,69.352 27.268,69.352 C27.196,69.352 27.052,69.352 26.89,69.37 L26.872,67.354 C27.376,67.462 28.096,67.516 29.05,67.516 C29.23,67.516 29.428,67.516 29.68,67.498 C30.112,67.48 30.202,67.48 30.4,67.48 L30.4,66.292 C30.4,65.266 30.382,64.798 30.292,64.222 L32.542,64.222 C32.452,64.798 32.434,65.176 32.434,66.184 L32.434,67.336 C33.784,67.174 34.99,66.94 35.908,66.652 L35.98,68.668 C35.656,68.722 35.314,68.776 34.072,68.992 C33.478,69.1 33.118,69.154 32.434,69.226 L32.434,71.566 C33.658,71.206 34.792,71.062 36.106,71.062 C39.112,71.062 41.254,72.898 41.254,75.454 C41.254,77.794 39.508,79.558 37.168,79.558 C35.71,79.558 34.684,78.856 34.216,77.56 C33.982,76.948 33.91,76.354 33.91,75.256 C34.828,75.004 35.134,74.878 35.908,74.464 C35.872,74.806 35.872,74.968 35.872,75.256 C35.872,76.012 35.944,76.498 36.124,76.84 C36.322,77.218 36.754,77.452 37.258,77.452 C38.32,77.452 39.076,76.606 39.076,75.454 C39.076,73.906 37.816,72.898 35.89,72.898 C34.81,72.898 33.712,73.096 32.434,73.492 Z M30.418,76.768 L30.418,74.14 C29.068,74.86 28.276,75.652 28.276,76.3 C28.276,76.606 28.456,76.876 28.87,77.128 C29.23,77.38 29.68,77.524 30.022,77.524 C30.328,77.524 30.418,77.362 30.418,76.768 Z M42.046,69.172 L40.39,70.504 C39.49,69.082 38.176,67.66 36.79,66.616 L38.482,65.482 C40.048,66.688 41.092,67.768 42.046,69.172 Z M46.402,70.576 L46.402,78.19 C46.402,79.27 46.438,79.936 46.51,80.404 L44.404,80.404 C44.476,79.864 44.512,79.288 44.512,78.172 L44.512,66.382 C44.512,65.428 44.494,64.924 44.44,64.348 C44.998,64.402 45.412,64.42 46.276,64.42 L49.462,64.42 C50.398,64.42 50.812,64.402 51.298,64.348 C51.262,64.924 51.244,65.338 51.244,66.04 L51.244,69.01 C51.244,69.82 51.262,70.234 51.298,70.63 C50.866,70.594 50.236,70.576 49.642,70.576 L46.402,70.576 Z M46.402,65.896 L46.402,66.832 L49.48,66.832 L49.48,65.896 L46.402,65.896 Z M46.402,68.218 L46.402,69.172 L49.48,69.172 L49.48,68.218 L46.402,68.218 Z M59.56,66.364 L59.56,78.19 C59.56,79.18 59.398,79.648 58.93,79.936 C58.57,80.152 58.084,80.224 57.04,80.224 C56.752,80.224 56.554,80.224 55.366,80.152 C55.24,79.288 55.15,78.91 54.862,78.244 C55.618,78.334 56.482,78.406 57.076,78.406 C57.58,78.406 57.67,78.334 57.67,77.938 L57.67,70.576 L54.196,70.576 C53.602,70.576 52.954,70.594 52.558,70.63 C52.576,70.144 52.594,69.784 52.594,69.01 L52.594,66.04 C52.594,65.356 52.576,64.87 52.54,64.348 C53.08,64.402 53.476,64.42 54.376,64.42 L57.796,64.42 C58.66,64.42 59.092,64.402 59.65,64.348 C59.578,64.942 59.56,65.482 59.56,66.364 Z M54.376,65.896 L54.376,66.832 L57.67,66.832 L57.67,65.896 L54.376,65.896 Z M54.376,68.218 L54.376,69.172 L57.67,69.172 L57.67,68.218 L54.376,68.218 Z M55.51,73.06 L55.51,76.3 C55.51,76.822 55.528,77.182 55.564,77.524 C55.186,77.488 54.808,77.47 54.286,77.47 L50.272,77.47 L50.272,78.676 L48.364,78.676 C48.418,78.172 48.454,77.614 48.454,76.93 L48.454,73.078 C48.454,72.592 48.436,72.196 48.4,71.818 C48.796,71.854 49.21,71.872 49.732,71.872 L54.178,71.872 C54.736,71.872 55.186,71.854 55.564,71.818 C55.528,72.178 55.51,72.538 55.51,73.06 Z M50.272,73.474 L50.272,75.832 L53.692,75.832 L53.692,73.474 L50.272,73.474 Z M65.374,71.08 L65.374,69.838 C64.204,70.558 63.736,70.81 62.494,71.35 C62.188,70.594 61.972,70.216 61.45,69.514 C63.124,68.866 64.654,68.002 66.04,66.922 C67.282,65.932 68.128,65.032 68.866,63.916 L71.008,63.916 C71.782,65.068 72.592,65.878 74.032,66.958 C75.436,68.02 76.786,68.74 78.622,69.424 C78.154,70.18 77.974,70.522 77.632,71.404 C76.354,70.828 75.796,70.54 74.698,69.82 L74.698,71.08 C74.248,71.026 73.798,71.008 73.078,71.008 L66.922,71.008 C66.346,71.008 65.842,71.026 65.374,71.08 Z M73.672,69.136 C72.088,68.002 71.098,67.066 69.964,65.626 C68.884,67.174 68.092,67.948 66.436,69.136 L73.672,69.136 Z M66.058,80.368 L63.916,80.368 C63.988,79.792 64.024,79.252 64.024,78.46 L64.024,74.266 C64.024,73.528 63.988,73.006 63.934,72.484 C64.33,72.538 64.762,72.556 65.482,72.556 L74.482,72.556 C75.202,72.556 75.634,72.538 76.048,72.484 C75.976,72.988 75.958,73.492 75.958,74.266 L75.958,78.478 C75.958,79.306 75.976,79.81 76.066,80.368 L73.924,80.368 L73.924,79.45 L66.058,79.45 L66.058,80.368 Z M66.058,74.302 L66.058,77.686 L73.924,77.686 L73.924,74.302 L66.058,74.302 Z M94.426,76.642 L94.57,79.054 C94.372,79.072 94.372,79.072 93.76,79.144 C92.446,79.288 90.07,79.414 88.882,79.414 C85.516,79.414 84.058,78.766 83.518,77.038 C83.266,76.228 83.194,75.22 83.194,72.124 C83.194,71.854 83.194,71.782 83.212,70.378 C80.692,70.558 80.692,70.558 79.882,70.702 L79.738,68.596 C79.99,68.614 80.17,68.614 80.26,68.614 C80.422,68.614 81.412,68.56 83.194,68.452 C83.212,68.164 83.212,68.002 83.212,67.894 C83.212,65.986 83.194,65.482 83.086,64.834 L85.498,64.834 C85.39,65.5 85.39,65.5 85.336,68.344 C87.856,68.218 87.856,68.218 90.538,68.092 C90.538,65.23 90.538,65.23 90.43,64.528 L92.68,64.528 C92.608,65.104 92.59,65.32 92.59,65.77 L92.59,68.02 C95.488,67.93 95.488,67.93 96.082,67.858 L96.118,70 C95.704,69.946 95.542,69.946 95.092,69.946 C94.462,69.946 93.436,69.964 92.59,69.964 C92.572,71.782 92.41,73.132 92.122,73.78 C91.726,74.68 90.988,75.13 89.926,75.13 C89.08,75.13 88.288,74.95 87.352,74.518 C87.37,74.158 87.37,74.05 87.37,73.798 C87.37,73.312 87.334,72.97 87.244,72.322 C88.216,72.88 89.062,73.204 89.602,73.204 C90.07,73.204 90.268,72.97 90.376,72.268 C90.466,71.746 90.52,71.026 90.538,70.018 C87.802,70.126 87.802,70.126 85.3,70.27 L85.3,70.756 C85.3,70.846 85.3,70.846 85.282,71.8 L85.282,72.178 C85.282,73.114 85.336,75.076 85.372,75.436 C85.516,76.948 86.29,77.326 89.224,77.326 C91.564,77.326 93.256,77.11 94.426,76.642 Z M37.834,89.57 L37.996,87.428 C39.382,87.752 40.984,87.878 43.396,87.878 C45.682,87.878 46.96,87.788 48.148,87.536 L48.22,89.552 C47.14,90.038 45.196,91.244 43.414,92.54 L41.848,91.298 C42.784,90.704 43.666,90.164 44.494,89.696 C43.702,89.804 42.928,89.84 41.794,89.84 C40.876,89.84 39.382,89.75 38.5,89.624 C38.14,89.588 38.086,89.57 37.834,89.57 Z M39.166,93.638 L40.732,94.826 C39.598,95.762 39.094,96.518 39.094,97.292 C39.094,98.462 40.408,98.966 43.45,98.966 C45.592,98.966 47.95,98.642 49.102,98.21 L49.3,100.676 C48.994,100.694 48.886,100.694 48.508,100.748 C46.348,101.054 45.196,101.144 43.648,101.144 C41.686,101.144 40.102,100.946 39.148,100.55 C37.6,99.956 36.844,98.948 36.844,97.544 C36.844,96.176 37.546,94.988 39.166,93.638 Z M53.836,90.884 L53.872,88.778 C54.7,88.994 55.906,89.084 57.76,89.084 C58.102,87.644 58.228,86.888 58.264,86.114 L60.676,86.312 C60.568,86.636 60.568,86.636 60.388,87.356 C60.064,88.706 60.064,88.706 59.956,89.048 C61.324,89.012 63.358,88.868 64.546,88.724 C65.878,88.562 66.22,88.49 66.85,88.31 L66.958,90.488 C66.544,90.506 66.382,90.524 65.914,90.578 C63.304,90.866 61.72,90.992 59.47,91.046 C59.092,92.324 58.408,94.052 58.048,94.7 L58.048,94.736 C59.254,93.962 60.82,93.566 62.584,93.566 C65.752,93.566 67.642,94.934 67.642,97.22 C67.642,99.884 65.068,101.612 61.126,101.612 C59.524,101.612 57.94,101.396 56.536,100.982 C56.536,99.956 56.518,99.596 56.356,98.696 C57.976,99.272 59.488,99.56 61,99.56 C63.61,99.56 65.302,98.642 65.302,97.202 C65.302,96.086 64.222,95.474 62.278,95.474 C60.946,95.474 59.56,95.798 58.408,96.356 C57.742,96.68 57.418,96.95 57.094,97.4 L54.916,96.644 C55.186,96.212 55.492,95.654 55.762,95.024 C56.356,93.656 57.022,91.91 57.274,91.028 C56.32,91.01 55.51,90.974 54.556,90.902 C54.304,90.884 54.124,90.884 53.98,90.884 L53.836,90.884 Z M75.166,88.13 L76.21,86.312 C77.452,86.996 80.89,88.022 82.924,88.31 L82.186,90.38 C79.108,89.678 77.218,89.084 75.166,88.13 Z M73.726,89.714 L75.976,89.84 C75.706,90.83 75.4,92.504 75.166,94.268 C75.13,94.52 75.13,94.52 75.076,94.79 L75.112,94.826 C76.156,93.818 78.388,93.116 80.566,93.116 C83.626,93.116 85.642,94.628 85.642,96.932 C85.642,98.246 84.94,99.578 83.788,100.406 C82.618,101.252 81.124,101.63 79.036,101.63 C77.488,101.63 76.498,101.504 74.446,101 C74.428,99.884 74.392,99.524 74.176,98.678 C75.94,99.29 77.488,99.578 79.018,99.578 C81.556,99.578 83.32,98.516 83.32,96.986 C83.32,95.78 82.186,95.06 80.278,95.06 C78.676,95.06 77.002,95.546 75.796,96.374 C75.472,96.608 75.364,96.716 74.986,97.148 L72.718,97.076 C72.772,96.752 72.772,96.68 72.862,95.996 C73.006,94.88 73.294,92.882 73.618,90.758 C73.69,90.326 73.708,90.11 73.726,89.714 Z"/>
  </g>
</svg>
