<svg height="48" viewBox="0 0 180 48" width="180" xmlns="http://www.w3.org/2000/svg"><g fill="none" fill-rule="evenodd"><path d="m0 0h180v48h-180z" fill="#fcc800"/><path d="m44.174 26.008.018 3.546c0 .738-.036 1.17-.144 1.53-.162.63-.81 1.044-1.656 1.044-1.134 0-2.502-.504-3.402-1.278-.648-.558-.99-1.26-.99-2.034 0-.846.558-1.8 1.548-2.664.648-.558 1.44-1.026 2.628-1.53l-.018-2.772c-.144 0-.144 0-.738.036-.27.018-.522.018-.972.018-.27 0-.774-.018-.99-.018-.234-.018-.396-.018-.45-.018-.072 0-.216 0-.378.018l-.018-2.016c.504.108 1.224.162 2.178.162.18 0 .378 0 .63-.018.432-.018.522-.018.72-.018v-1.188c0-1.026-.018-1.494-.108-2.07h2.25c-.09.576-.108.954-.108 1.962v1.152c1.35-.162 2.556-.396 3.474-.684l.072 2.016c-.324.054-.666.108-1.908.324-.594.108-.954.162-1.638.234v2.34c1.224-.36 2.358-.504 3.672-.504 3.006 0 5.148 1.836 5.148 4.392 0 2.34-1.746 4.104-4.086 4.104-1.458 0-2.484-.702-2.952-1.998-.234-.612-.306-1.206-.306-2.304.918-.252 1.224-.378 1.998-.792-.036.342-.036.504-.036.792 0 .756.072 1.242.252 1.584.198.378.63.612 1.134.612 1.062 0 1.818-.846 1.818-1.998 0-1.548-1.26-2.556-3.186-2.556-1.08 0-2.178.198-3.456.594zm-2.016 3.276v-2.628c-1.35.72-2.142 1.512-2.142 2.16 0 .306.18.576.594.828.36.252.81.396 1.152.396.306 0 .396-.162.396-.756zm11.628-7.596-1.656 1.332c-.9-1.422-2.214-2.844-3.6-3.888l1.692-1.134c1.566 1.206 2.61 2.286 3.564 3.69zm6.912 6.012h-1.026c-.864 0-1.476.018-1.944.054.072-.522.09-1.08.09-1.908v-6.57c0-.99-.036-1.782-.09-2.25.54.072 1.062.09 1.89.09h8.298c.828 0 1.386-.018 1.908-.09-.054.432-.09 1.26-.09 2.25v6.57c0 .864.018 1.404.09 1.908-.468-.036-1.17-.054-1.908-.054h-1.548v2.772c0 .504.162.558 1.566.558 1.386 0 1.746-.072 1.962-.378.18-.252.27-.936.324-2.304.738.396 1.17.576 1.854.756-.18 1.998-.36 2.664-.81 3.096-.504.468-1.278.612-3.312.612-2.988 0-3.528-.252-3.528-1.602v-3.51h-1.62c-.216 1.386-.792 2.484-1.71 3.33-1.134 1.062-2.502 1.692-4.572 2.16-.306-.756-.522-1.134-1.044-1.764 1.692-.306 2.646-.63 3.51-1.188.972-.63 1.494-1.404 1.71-2.538zm-.99-8.784v1.17h8.118v-1.17zm0 2.862v1.206h8.118v-1.206zm0 2.898v1.278h8.118v-1.278zm19.422-1.692v-.342c-.342-.036-.594-.054-1.026-.054h-.342c.198.522.288.72.558 1.152.468.792.846 1.26 1.512 1.854-.342.432-.594.81-.864 1.44-.54-.63-.846-1.116-1.368-2.16.054.612.054.612.108 2.142v3.852c0 1.044.018 1.62.108 2.124h-2.034c.072-.612.108-1.224.108-2.106v-2.538c0-.882.054-1.818.126-2.682-.414 1.422-1.008 2.61-1.764 3.618-.288-.648-.504-1.008-1.008-1.692.756-.846 1.296-1.746 1.818-3.006.342-.81.558-1.476.684-1.998h-.756c-.612 0-.918.018-1.368.09v-1.908c.432.072.774.09 1.422.09h.846v-1.836c-.54.144-.81.198-1.71.36-.18-.648-.288-.918-.684-1.674 1.746-.216 3.042-.54 4.302-1.062.342-.126.54-.234.738-.36l1.044 1.584c-.108.036-.144.054-.306.108-.468.198-.828.324-1.566.558v2.322h.432c.576 0 .846-.018 1.188-.072v.594c.378.036.756.054 1.476.054h2.682v-.63h-2.016c-.738 0-1.026.018-1.458.054v-1.404c.414.054.81.072 1.458.072h2.016v-.612h-2.25c-.738 0-1.062.018-1.584.09v-1.566c.486.072.99.09 1.71.09h2.124c0-.54-.018-.81-.108-1.17h2.034c-.072.324-.108.63-.108 1.17h2.466c.702 0 1.224-.036 1.746-.108v1.584c-.54-.072-.864-.09-1.602-.09h-2.61v.612h2.25c.702 0 1.098-.018 1.512-.072v1.404c-.432-.036-.72-.054-1.494-.054h-2.268v.63h2.988c.756 0 1.188-.018 1.674-.09v1.638c-.576-.072-.936-.09-1.674-.09h-7.488c-.702 0-1.134.018-1.674.09zm2.844 7.308h-.468c-1.152.018-1.152.018-1.548.054.054-.45.072-.954.072-1.62v-3.834c0-.864 0-1.08-.054-1.512.414.036.738.036 1.494.036h5.94c.846 0 1.152 0 1.548-.054-.054.414-.072.738-.072 1.602v3.744c0 .864.018 1.224.072 1.638-.486-.036-.936-.054-1.512-.054h-.612c1.152.558 2.196.9 3.582 1.152-.54.702-.702.99-.99 1.674-1.854-.522-2.808-.972-4.176-1.962l.756-.864h-3.294l.828.864c-1.386 1.026-2.304 1.458-4.176 1.962-.486-.972-.54-1.062-.936-1.584 1.53-.288 2.34-.558 3.546-1.242zm-.162-5.508v.594h5.274v-.594zm0 1.746v.594h5.274v-.594zm0 1.728v.63h5.274v-.63zm10.8-2.52.198-2.07c.828.324 1.332.432 3.168.684.072-.648.234-1.854.324-2.52-1.062-.144-1.35-.18-2.574-.45-.252-.054-.342-.072-.612-.126l.18-1.98c.756.288 2.034.54 3.258.648.252-1.512.36-2.448.36-2.988 0-.054 0-.09-.018-.18l2.394.216c-.198.558-.252.828-.576 3.042 2.034-.036 3.078-.126 4.104-.378l-.072 2.106c-.234.018-.324.036-.72.072-1.296.108-1.872.144-2.52.144-.18 0-.342 0-1.116-.018-.18 1.314-.234 1.674-.342 2.538.54.018.684.018.882.018 1.278 0 2.574-.126 3.438-.36l-.054 2.07c-.18 0-.234 0-.54.054-.792.09-1.854.162-2.7.162-.288 0-.45 0-1.152-.036-.054.486-.09.954-.09 1.278 0 .882.198 1.44.666 1.854.522.45 1.242.666 2.232.666 2.286 0 3.6-1.008 3.6-2.772 0-1.044-.54-2.052-1.62-3.042 1.008-.072 1.386-.144 2.232-.45.45.522.648.792.846 1.134.468.792.774 1.818.774 2.646 0 1.278-.63 2.52-1.728 3.366-1.026.792-2.376 1.188-4.068 1.188-3.276 0-5.058-1.566-5.058-4.464 0-.468.018-.918.09-1.53-1.08-.144-1.782-.252-2.502-.414-.378-.09-.432-.09-.684-.108zm20.232-9.054 2.286.126c-.216.612-.306 1.08-.648 3.474-.126.756-.198 1.368-.234 1.8h.054c.036-.108.036-.108.108-.396.18-.63.648-1.512 1.134-2.142.99-1.224 2.106-1.836 3.42-1.836 1.224 0 2.304.576 3.078 1.62.9 1.206 1.296 2.664 1.296 4.788 0 3.474-1.62 6.066-4.644 7.398-.918.414-2.178.774-3.528 1.008-.36-1.026-.558-1.422-1.062-2.124 1.8-.198 2.844-.468 3.942-1.026 2.088-1.062 3.042-2.772 3.042-5.508 0-2.592-.864-4.032-2.412-4.032-.684 0-1.314.306-1.944.954-1.404 1.458-2.268 3.672-2.268 5.814v.378l-2.16.036c.018-.108.018-.198.018-.234v-.342c-.018-.522-.054-1.854-.054-2.214 0-1.458.108-3.456.252-4.698l.27-2.232c.036-.306.054-.378.054-.612zm16.265 5.454v-1.674c-.504.486-.774.702-1.476 1.26-.558-.684-.792-.936-1.314-1.368 1.692-1.224 2.682-2.232 3.348-3.474.162-.306.306-.612.378-.882l2.088.396c-.144.216-.144.216-.378.648-.18.306-.324.54-.576.918h8.73c1.098 0 1.71-.036 2.268-.108v1.98c-.594-.054-.846-.072-1.764-.09v2.394h.702c.846 0 1.242-.018 1.764-.108v2.016c-.522-.09-.936-.108-1.764-.108h-.702v2.412h.36c.846 0 1.242-.018 1.71-.09v1.98c-.468-.09-.9-.108-1.674-.108h-12.276c-.702 0-1.098.018-1.602.108v-1.98c.486.072.954.09 1.764.09h.414v-2.412h-.774c-.81 0-1.224.018-1.764.108v-2.016c.522.09.918.108 1.764.108zm1.782-2.394v2.394h1.458v-2.394zm0 4.194v2.412h1.458v-2.412zm3.096 2.412h1.494v-2.412h-1.494zm0-4.212h1.494v-2.394h-1.494zm3.114 4.212h1.53v-2.412h-1.53zm0-4.212h1.53v-2.394h-1.53zm5.67 9.612-1.728 1.08c-.648-1.494-1.098-2.25-2.16-3.762l1.548-.774c1.044 1.278 1.584 2.088 2.34 3.456zm-4.896.63-1.962.432c-.27-1.746-.378-2.25-.846-3.78l1.746-.396c.504 1.422.738 2.214 1.062 3.744zm-4.176.306-1.962.18v-.738c0-.684-.144-2.304-.27-3.186l1.746-.198c.306 1.638.414 2.43.486 3.942zm-5.58.252-1.566-1.242c1.098-1.08 1.62-1.854 2.232-3.366l1.656.828c-.738 1.746-1.206 2.484-2.322 3.78zm23.706-2.916-.414-1.926c-.09.234-.108.324-.198.612-.756-.846-1.26-1.548-1.818-2.538.09 1.224.108 1.476.108 2.052v2.97c0 .864.018 1.332.108 1.872h-2.088c.09-.576.126-1.116.126-1.908v-2.322c0-.72.036-1.566.072-2.16-.81 1.98-1.386 2.988-2.34 4.05-.198-.702-.522-1.35-.918-1.854.756-.774 1.332-1.566 1.944-2.664.378-.666.45-.846.954-2.034h-.936c-.792 0-1.188.018-1.62.09v-1.908c.414.072.792.09 1.62.09h1.206v-4.266c0-.81-.018-1.332-.09-1.764h2.052c-.072.468-.09.882-.09 1.746v4.284h.846c.684 0 .99-.018 1.386-.072v1.872c-.432-.054-.792-.072-1.422-.072h-.648c.666 1.134 1.332 1.944 2.322 2.754-.252.45-.324.612-.504 1.008.414-.018 1.044-.126 1.656-.252l4.212-.936v-8.226c0-1.044-.018-1.53-.108-2.088h2.178c-.09.594-.108 1.08-.108 2.07v7.812c.738-.18 1.062-.27 1.53-.45l.378 2.052c-.486.054-.99.144-1.728.324l-.18.036v2.628c0 1.008.018 1.548.108 2.124h-2.178c.09-.612.108-1.044.108-2.142v-2.178l-3.816.864c-.792.18-1.314.324-1.71.45zm-7.146-11.934 1.53-.684c.576 1.602.846 2.52 1.098 3.888l-1.512.648c-.288-1.656-.612-2.772-1.116-3.852zm6.192-.72 1.512.666c-.468 1.656-.702 2.286-1.44 3.906l-1.314-.684c.576-1.206.882-2.142 1.242-3.888zm1.71 1.638 1.26-1.386c1.548 1.08 2.124 1.584 3.15 2.646l-1.224 1.512c-1.332-1.422-1.422-1.494-3.186-2.772zm-.558 4.446 1.26-1.332c1.422.972 2.196 1.638 3.132 2.646l-1.224 1.458c-1.26-1.35-1.872-1.89-3.168-2.772zm13.77 4.338h-2.106c.018-.378.036-.558.036-.774 0-.198 0-.198-.054-1.296l-.252-6.12c-.036-.792-.09-1.692-.162-2.196h2.952c-.054.486-.126 1.422-.162 2.196l-.252 6.12c-.036 1.062-.036 1.062-.036 1.314 0 .216 0 .396.036.756zm.252 3.942h-2.61v-2.466h2.61z" fill="#fff"/><g transform="translate(3 15)"><path d="m28.6944968 8c.1344077.07267741.2331562.17140898.3058461.30579362.0726898-.13438464.1707526-.23311621.305846-.30579362-.1350934-.07267741-.2331562-.17140898-.305846-.30579362-.0726899.13438464-.1714384.23311621-.3058461.30579362m.3058461 2c-.1056061 0-.1906395-.08570449-.1906395-.19060679 0-1.60370243-.0150866-1.61878642-1.6183782-1.61878642-.1062918 0-.1913252-.08501886-.1913252-.19060679s.0850334-.19060679.1913252-.19060679c1.6032916 0 1.6183782-.01508399 1.6183782-1.61878642 0-.1049023.0850334-.19060679.1906395-.19060679.105606 0 .1906394.08570449.1906394.19060679 0 1.60370243.0150866 1.61878642 1.619064 1.61878642.1049203 0 .1899537.08501886.1899537.19060679s-.0850334.19060679-.1899537.19060679c-1.6039774 0-1.619064.01508399-1.619064 1.61878642 0 .1049023-.0850334.19060679-.1906394.19060679m-27.30584607-5c.13440768.07267741.23315618.17140898.30516029.30579362.07337562-.13438464.17143837-.23311621.30653181-.30579362-.13509344-.07267741-.23315619-.17140898-.30653181-.30579362-.07200411.13438464-.17075261.23311621-.30516029.30579362m.30516029 2c-.10492028 0-.18995371-.08570449-.18995371-.19060679 0-1.60370243-.01508657-1.61878642-1.61906394-1.61878642-.10560604 0-.19063947-.08501886-.19063947-.19060679s.08503343-.19060679.19063947-.19060679c1.60397737 0 1.61906394-.01508399 1.61906394-1.61878642 0-.1049023.08503343-.19060679.18995371-.19060679.10629179 0 .19132522.08570449.19132522.19060679 0 1.60370243.01440082 1.61878642 1.61837819 1.61878642.10560604 0 .19063947.08501886.19063947.19060679s-.08503343.19060679-.19063947.19060679c-1.60397737 0-1.61837819.01508399-1.61837819 1.61878642 0 .1049023-.08503343.19060679-.19132522.19060679" fill="#fff"/><g fill="#0094de"><path d="m23.1731941 9.18351429c0 .17425714-.1456603.31648571-.3234433.31648571h-5.0072791c-.177783 0-.3234433-.14222857-.3234433-.31648571v-4.11648572c0-.17425714.1456603-.31702857.3234433-.31702857h5.0072791c.177783 0 .3234433.14277143.3234433.31702857zm-9.6922225 0c0 .17425714-.1456603.31648571-.3234433.31648571h-5.00727907c-.17778305 0-.32344331-.14222857-.32344331-.31648571v-4.11648572c0-.17425714.14566026-.31702857.32344331-.31702857h5.00727907c.177783 0 .3234433.14277143.3234433.31702857zm11.7115278-9.18351429h-8.0860828c-.3688582.47825714-.9481762.79202857-1.6061397.79202857-.6585173 0-1.2378353-.31377143-1.6066935-.79202857h-8.08552897c-.44418071 0-.80805443.35665714-.80805443.79202857v17.41648573c0 .4353714.36387372.7914857.80805443.7914857h2.7459451 4.20033227c.1772292 0 .3228895-.1422286.3228895-.3164857v-5.7c0-.1742572.1451064-.3164857.3228895-.3164857h4.1997784c.1777831 0 .3234433.1422285.3234433.3164857v5.7c0 .1742571.1451065.3164857.3228895.3164857h4.2003323 2.7459451c.4436269 0 .8075006-.3561143.8075006-.7914857v-17.41648573c0-.43537143-.3638737-.79202857-.8075006-.79202857z"/><path d="m11 10h.584v-6h-.584z"/><path d="m10 7h.583v-1h-.583z"/><path d="m20 7h.583v-1h-.583z"/><path d="m20 10h.584v-6h-.584z"/><path d="m15 15.5c0 .276406-.2241261.5-.4996573.5-.2762166 0-.5003427-.223594-.5003427-.5s.2241261-.5.5003427-.5c.2755312 0 .4996573.223594.4996573.5"/></g></g></g></svg>