<svg height="48" viewBox="0 0 180 48" width="180" xmlns="http://www.w3.org/2000/svg"><g fill="none" fill-rule="evenodd"><path d="m0 0h180v48h-180z" fill="#8fc31f"/><path d="m50.174 25.576.018 3.546c0 .738-.036 1.17-.144 1.53-.162.63-.81 1.044-1.656 1.044-1.134 0-2.502-.504-3.402-1.278-.648-.558-.99-1.26-.99-2.034 0-.846.558-1.8 1.548-2.664.648-.558 1.44-1.026 2.628-1.53l-.018-2.772c-.144 0-.144 0-.738.036-.27.018-.522.018-.972.018-.27 0-.774-.018-.99-.018-.234-.018-.396-.018-.45-.018-.072 0-.216 0-.378.018l-.018-2.016c.504.108 1.224.162 2.178.162.18 0 .378 0 .63-.018.432-.018.522-.018.72-.018v-1.188c0-1.026-.018-1.494-.108-2.07h2.25c-.09.576-.108.954-.108 1.962v1.152c1.35-.162 2.556-.396 3.474-.684l.072 2.016c-.324.054-.666.108-1.908.324-.594.108-.954.162-1.638.234v2.34c1.224-.36 2.358-.504 3.672-.504 3.006 0 5.148 1.836 5.148 4.392 0 2.34-1.746 4.104-4.086 4.104-1.458 0-2.484-.702-2.952-1.998-.234-.612-.306-1.206-.306-2.304.918-.252 1.224-.378 1.998-.792-.036.342-.036.504-.036.792 0 .756.072 1.242.252 1.584.198.378.63.612 1.134.612 1.062 0 1.818-.846 1.818-1.998 0-1.548-1.26-2.556-3.186-2.556-1.08 0-2.178.198-3.456.594zm-2.016 3.276v-2.628c-1.35.72-2.142 1.512-2.142 2.16 0 .306.18.576.594.828.36.252.81.396 1.152.396.306 0 .396-.162.396-.756zm11.628-7.596-1.656 1.332c-.9-1.422-2.214-2.844-3.6-3.888l1.692-1.134c1.566 1.206 2.61 2.286 3.564 3.69zm4.356 1.404v7.614c0 1.08.036 1.746.108 2.214h-2.106c.072-.54.108-1.116.108-2.232v-11.79c0-.954-.018-1.458-.072-2.034.558.054.972.072 1.836.072h3.186c.936 0 1.35-.018 1.836-.072-.036.576-.054.99-.054 1.692v2.97c0 .81.018 1.224.054 1.62-.432-.036-1.062-.054-1.656-.054zm0-4.68v.936h3.078v-.936zm0 2.322v.954h3.078v-.954zm13.158-1.854v11.826c0 .99-.162 1.458-.63 1.746-.36.216-.846.288-1.89.288-.288 0-.486 0-1.674-.072-.126-.864-.216-1.242-.504-1.908.756.09 1.62.162 2.214.162.504 0 .594-.072.594-.468v-7.362h-3.474c-.594 0-1.242.018-1.638.054.018-.486.036-.846.036-1.62v-2.97c0-.684-.018-1.17-.054-1.692.54.054.936.072 1.836.072h3.42c.864 0 1.296-.018 1.854-.072-.072.594-.09 1.134-.09 2.016zm-5.184-.468v.936h3.294v-.936zm0 2.322v.954h3.294v-.954zm1.134 4.842v3.24c0 .522.018.882.054 1.224-.378-.036-.756-.054-1.278-.054h-4.014v1.206h-1.908c.054-.504.09-1.062.09-1.746v-3.852c0-.486-.018-.882-.054-1.26.396.036.81.054 1.332.054h4.446c.558 0 1.008-.018 1.386-.054-.036.36-.054.72-.054 1.242zm-5.238.414v2.358h3.42v-2.358zm15.102-2.394v-1.242c-1.17.72-1.638.972-2.88 1.512-.306-.756-.522-1.134-1.044-1.836 1.674-.648 3.204-1.512 4.59-2.592 1.242-.99 2.088-1.89 2.826-3.006h2.142c.774 1.152 1.584 1.962 3.024 3.042 1.404 1.062 2.754 1.782 4.59 2.466-.468.756-.648 1.098-.99 1.98-1.278-.576-1.836-.864-2.934-1.584v1.26c-.45-.054-.9-.072-1.62-.072h-6.156c-.576 0-1.08.018-1.548.072zm8.298-1.944c-1.584-1.134-2.574-2.07-3.708-3.51-1.08 1.548-1.872 2.322-3.528 3.51zm-7.614 11.232h-2.142c.072-.576.108-1.116.108-1.908v-4.194c0-.738-.036-1.26-.09-1.782.396.054.828.072 1.548.072h9c.72 0 1.152-.018 1.566-.072-.072.504-.09 1.008-.09 1.782v4.212c0 .828.018 1.332.108 1.89h-2.142v-.918h-7.866zm0-6.066v3.384h7.866v-3.384zm28.368 2.34.144 2.412c-.198.018-.198.018-.81.09-1.314.144-3.69.27-4.878.27-3.366 0-4.824-.648-5.364-2.376-.252-.81-.324-1.818-.324-4.914 0-.27 0-.342.018-1.746-2.52.18-2.52.18-3.33.324l-.144-2.106c.252.018.432.018.522.018.162 0 1.152-.054 2.934-.162.018-.288.018-.45.018-.558 0-1.908-.018-2.412-.126-3.06h2.412c-.108.666-.108.666-.162 3.51 2.52-.126 2.52-.126 5.202-.252 0-2.862 0-2.862-.108-3.564h2.25c-.072.576-.09.792-.09 1.242v2.25c2.898-.09 2.898-.09 3.492-.162l.036 2.142c-.414-.054-.576-.054-1.026-.054-.63 0-1.656.018-2.502.018-.018 1.818-.18 3.168-.468 3.816-.396.9-1.134 1.35-2.196 1.35-.846 0-1.638-.18-2.574-.612.018-.36.018-.468.018-.72 0-.486-.036-.828-.126-1.476.972.558 1.818.882 2.358.882.468 0 .666-.234.774-.936.09-.522.144-1.242.162-2.25-2.736.108-2.736.108-5.238.252v.486c0 .09 0 .09-.018 1.044v.378c0 .936.054 2.898.09 3.258.144 1.512.918 1.89 3.852 1.89 2.34 0 4.032-.216 5.202-.684zm7.408-9.072.162-2.142c1.386.324 2.988.45 5.4.45 2.286 0 3.564-.09 4.752-.342l.072 2.016c-1.08.486-3.024 1.692-4.806 2.988l-1.566-1.242c.936-.594 1.818-1.134 2.646-1.602-.792.108-1.566.144-2.7.144-.918 0-2.412-.09-3.294-.216-.36-.036-.414-.054-.666-.054zm1.332 4.068 1.566 1.188c-1.134.936-1.638 1.692-1.638 2.466 0 1.17 1.314 1.674 4.356 1.674 2.142 0 4.5-.324 5.652-.756l.198 2.466c-.306.018-.414.018-.792.072-2.16.306-3.312.396-4.86.396-1.962 0-3.546-.198-4.5-.594-1.548-.594-2.304-1.602-2.304-3.006 0-1.368.702-2.556 2.322-3.906zm14.67-2.754.036-2.106c.828.216 2.034.306 3.888.306.342-1.44.468-2.196.504-2.97l2.412.198c-.108.324-.108.324-.288 1.044-.324 1.35-.324 1.35-.432 1.692 1.368-.036 3.402-.18 4.59-.324 1.332-.162 1.674-.234 2.304-.414l.108 2.178c-.414.018-.576.036-1.044.09-2.61.288-4.194.414-6.444.468-.378 1.278-1.062 3.006-1.422 3.654v.036c1.206-.774 2.772-1.17 4.536-1.17 3.168 0 5.058 1.368 5.058 3.654 0 2.664-2.574 4.392-6.516 4.392-1.602 0-3.186-.216-4.59-.63 0-1.026-.018-1.386-.18-2.286 1.62.576 3.132.864 4.644.864 2.61 0 4.302-.918 4.302-2.358 0-1.116-1.08-1.728-3.024-1.728-1.332 0-2.718.324-3.87.882-.666.324-.99.594-1.314 1.044l-2.178-.756c.27-.432.576-.99.846-1.62.594-1.368 1.26-3.114 1.512-3.996-.954-.018-1.764-.054-2.718-.126-.252-.018-.432-.018-.576-.018zm21.33-2.754 1.044-1.818c1.242.684 4.68 1.71 6.714 1.998l-.738 2.07c-3.078-.702-4.968-1.296-7.02-2.25zm-1.44 1.584 2.25.126c-.27.99-.576 2.664-.81 4.428-.036.252-.036.252-.09.522l.036.036c1.044-1.008 3.276-1.71 5.454-1.71 3.06 0 5.076 1.512 5.076 3.816 0 1.314-.702 2.646-1.854 3.474-1.17.846-2.664 1.224-4.752 1.224-1.548 0-2.538-.126-4.59-.63-.018-1.116-.054-1.476-.27-2.322 1.764.612 3.312.9 4.842.9 2.538 0 4.302-1.062 4.302-2.592 0-1.206-1.134-1.926-3.042-1.926-1.602 0-3.276.486-4.482 1.314-.324.234-.432.342-.81.774l-2.268-.072c.054-.324.054-.396.144-1.08.144-1.116.432-3.114.756-5.238.072-.432.09-.648.108-1.044z" fill="#fff"/><g transform="translate(3 15)"><path d="m28.6944968 8c.1344077.07267741.2331562.17140898.3058461.30579362.0726898-.13438464.1707526-.23311621.305846-.30579362-.1350934-.07267741-.2331562-.17140898-.305846-.30579362-.0726899.13438464-.1714384.23311621-.3058461.30579362m.3058461 2c-.1056061 0-.1906395-.08570449-.1906395-.19060679 0-1.60370243-.0150866-1.61878642-1.6183782-1.61878642-.1062918 0-.1913252-.08501886-.1913252-.19060679s.0850334-.19060679.1913252-.19060679c1.6032916 0 1.6183782-.01508399 1.6183782-1.61878642 0-.1049023.0850334-.19060679.1906395-.19060679.105606 0 .1906394.08570449.1906394.19060679 0 1.60370243.0150866 1.61878642 1.619064 1.61878642.1049203 0 .1899537.08501886.1899537.19060679s-.0850334.19060679-.1899537.19060679c-1.6039774 0-1.619064.01508399-1.619064 1.61878642 0 .1049023-.0850334.19060679-.1906394.19060679m-27.30584607-5c.13440768.07267741.23315618.17140898.30516029.30579362.07337562-.13438464.17143837-.23311621.30653181-.30579362-.13509344-.07267741-.23315619-.17140898-.30653181-.30579362-.07200411.13438464-.17075261.23311621-.30516029.30579362m.30516029 2c-.10492028 0-.18995371-.08570449-.18995371-.19060679 0-1.60370243-.01508657-1.61878642-1.61906394-1.61878642-.10560604 0-.19063947-.08501886-.19063947-.19060679s.08503343-.19060679.19063947-.19060679c1.60397737 0 1.61906394-.01508399 1.61906394-1.61878642 0-.1049023.08503343-.19060679.18995371-.19060679.10629179 0 .19132522.08570449.19132522.19060679 0 1.60370243.01440082 1.61878642 1.61837819 1.61878642.10560604 0 .19063947.08501886.19063947.19060679s-.08503343.19060679-.19063947.19060679c-1.60397737 0-1.61837819.01508399-1.61837819 1.61878642 0 .1049023-.08503343.19060679-.19132522.19060679" fill="#fff"/><g fill="#0094de"><path d="m23.1731941 9.18351429c0 .17425714-.1456603.31648571-.3234433.31648571h-5.0072791c-.177783 0-.3234433-.14222857-.3234433-.31648571v-4.11648572c0-.17425714.1456603-.31702857.3234433-.31702857h5.0072791c.177783 0 .3234433.14277143.3234433.31702857zm-9.6922225 0c0 .17425714-.1456603.31648571-.3234433.31648571h-5.00727907c-.17778305 0-.32344331-.14222857-.32344331-.31648571v-4.11648572c0-.17425714.14566026-.31702857.32344331-.31702857h5.00727907c.177783 0 .3234433.14277143.3234433.31702857zm11.7115278-9.18351429h-8.0860828c-.3688582.47825714-.9481762.79202857-1.6061397.79202857-.6585173 0-1.2378353-.31377143-1.6066935-.79202857h-8.08552897c-.44418071 0-.80805443.35665714-.80805443.79202857v17.41648573c0 .4353714.36387372.7914857.80805443.7914857h2.7459451 4.20033227c.1772292 0 .3228895-.1422286.3228895-.3164857v-5.7c0-.1742572.1451064-.3164857.3228895-.3164857h4.1997784c.1777831 0 .3234433.1422285.3234433.3164857v5.7c0 .1742571.1451065.3164857.3228895.3164857h4.2003323 2.7459451c.4436269 0 .8075006-.3561143.8075006-.7914857v-17.41648573c0-.43537143-.3638737-.79202857-.8075006-.79202857z"/><path d="m11 10h.584v-6h-.584z"/><path d="m10 7h.583v-1h-.583z"/><path d="m20 7h.583v-1h-.583z"/><path d="m20 10h.584v-6h-.584z"/><path d="m15 15.5c0 .276406-.2241261.5-.4996573.5-.2762166 0-.5003427-.223594-.5003427-.5s.2241261-.5.5003427-.5c.2755312 0 .4996573.223594.4996573.5"/></g></g></g></svg>